<svg version="1.2" xmlns="http://www.w3.org/2000/svg" viewBox="0 0 50 50" width="50" height="50"><style>.a{fill:#fff}</style><path class="a" d="m41 4h-32c-2.8 0-5 2.2-5 5v32c0 2.8 2.2 5 5 5h32c2.8 0 5-2.2 5-5v-32c0-2.8-2.2-5-5-5zm-4 18.3q-0.3 0.1-0.7 0.1c-2.6 0-4.9-1.4-6.3-3.4 0 5.3 0 11.4 0 11.5 0 4.7-3.8 8.5-8.5 8.5-4.7 0-8.5-3.8-8.5-8.5 0-4.7 3.8-8.5 8.5-8.5q0.3 0 0.5 0v4.2q-0.2 0-0.5 0c-2.4 0-4.3 1.9-4.3 4.3 0 2.4 1.9 4.4 4.3 4.4 2.4 0 4.5-1.9 4.5-4.3 0-0.1 0.1-19.6 0.1-19.6h4c0.4 3.6 3.3 6.4 6.9 6.7z"/></svg>