<?xml version="1.0" encoding="utf-8"?>
<!-- Generator: Adobe Illustrator 25.2.0, SVG Export Plug-In . SVG Version: 6.00 Build 0)  -->
<svg version="1.1" id="Calque_1" xmlns="http://www.w3.org/2000/svg" xmlns:xlink="http://www.w3.org/1999/xlink" x="0px" y="0px"
	 viewBox="0 0 425.2 425.2" style="enable-background:new 0 0 425.2 425.2;" xml:space="preserve">
<style type="text/css">
	.st0{fill:#29235C;}
	.st1{fill:url(#SVGID_1_);}
	.st2{fill:url(#SVGID_2_);}
	.st3{fill:url(#SVGID_3_);}
	.st4{fill:url(#SVGID_4_);}
	.st5{fill:url(#SVGID_5_);}
	.st6{fill:url(#SVGID_6_);}
	.st7{fill:url(#SVGID_7_);}
	.st8{fill:url(#SVGID_8_);}
	.st9{fill:url(#SVGID_9_);}
	.st10{fill:url(#SVGID_10_);}
	.st11{fill:url(#SVGID_11_);}
	.st12{fill:url(#SVGID_12_);}
	.st13{fill:url(#SVGID_13_);}
	.st14{fill:url(#SVGID_14_);}
	.st15{fill:url(#SVGID_15_);}
	.st16{fill:url(#SVGID_16_);}
	.st17{fill:url(#SVGID_17_);}
	.st18{fill:url(#SVGID_18_);}
	.st19{fill:url(#SVGID_19_);}
	.st20{display:none;}
	.st21{display:inline;}
	.st22{fill:#FFFFFF;}
	.st23{fill:url(#SVGID_20_);}
	.st24{fill:url(#SVGID_21_);}
	.st25{fill:url(#SVGID_22_);}
	.st26{fill:url(#SVGID_23_);}
	.st27{fill:url(#SVGID_24_);}
	.st28{fill:url(#SVGID_25_);}
	.st29{fill:url(#SVGID_26_);}
	.st30{fill:url(#SVGID_27_);}
	.st31{fill:url(#SVGID_28_);}
	.st32{fill:url(#SVGID_29_);}
	.st33{fill:url(#SVGID_30_);}
	.st34{fill:url(#SVGID_31_);}
</style>
<g>
	<rect class="st0" width="425.2" height="425.2"/>
	<g id="Logo_1_">
		<g>
			<linearGradient id="SVGID_1_" gradientUnits="userSpaceOnUse" x1="93.4368" y1="271.3901" x2="325.9554" y2="271.3901">
				<stop  offset="0.3991" style="stop-color:#F1E690"/>
				<stop  offset="0.5288" style="stop-color:#F9F098"/>
				<stop  offset="0.655" style="stop-color:#F1E690"/>
				<stop  offset="1" style="stop-color:#A48044"/>
			</linearGradient>
			<path class="st1" d="M108.3,262.9c-1.2-0.5-2.6-0.8-4.2-0.8h-7.6v18.6h3.4v-5.4h4.2c1.6,0,3.1-0.3,4.2-0.8
				c1.2-0.5,2.1-1.3,2.7-2.3c0.6-1,1-2.2,1-3.5c0-1.4-0.3-2.6-1-3.6C110.4,264.2,109.5,263.4,108.3,262.9z M107.4,271.4
				c-0.8,0.6-1.9,1-3.4,1h-4V265h4c1.5,0,2.7,0.3,3.4,1c0.8,0.6,1.2,1.6,1.2,2.7C108.5,269.9,108.2,270.8,107.4,271.4z"/>
			<linearGradient id="SVGID_2_" gradientUnits="userSpaceOnUse" x1="93.4368" y1="262.1923" x2="325.9554" y2="262.1923">
				<stop  offset="0.3991" style="stop-color:#F1E690"/>
				<stop  offset="0.5288" style="stop-color:#F9F098"/>
				<stop  offset="0.655" style="stop-color:#F1E690"/>
				<stop  offset="1" style="stop-color:#A48044"/>
			</linearGradient>
			<path class="st2" d="M115.7,260.2c-0.6,0-1.1,0.2-1.5,0.6c-0.4,0.4-0.6,0.8-0.6,1.4c0,0.6,0.2,1,0.6,1.4c0.4,0.4,0.9,0.6,1.5,0.6
				c0.6,0,1.1-0.2,1.5-0.6c0.4-0.4,0.6-0.9,0.6-1.4c0-0.6-0.2-1-0.6-1.4S116.4,260.2,115.7,260.2z"/>
			<linearGradient id="SVGID_3_" gradientUnits="userSpaceOnUse" x1="93.4368" y1="273.5901" x2="325.9554" y2="273.5901">
				<stop  offset="0.3991" style="stop-color:#F1E690"/>
				<stop  offset="0.5288" style="stop-color:#F9F098"/>
				<stop  offset="0.655" style="stop-color:#F1E690"/>
				<stop  offset="1" style="stop-color:#A48044"/>
			</linearGradient>
			<rect x="114.1" y="266.5" class="st3" width="3.3" height="14.2"/>
			<linearGradient id="SVGID_4_" gradientUnits="userSpaceOnUse" x1="93.4368" y1="273.5901" x2="325.9554" y2="273.5901">
				<stop  offset="0.3991" style="stop-color:#F1E690"/>
				<stop  offset="0.5288" style="stop-color:#F9F098"/>
				<stop  offset="0.655" style="stop-color:#F1E690"/>
				<stop  offset="1" style="stop-color:#A48044"/>
			</linearGradient>
			<polygon class="st4" points="131.2,268.6 131.2,266.5 119.4,266.5 119.4,269.2 127,269.2 119.2,278.6 119.2,280.7 131.5,280.7 
				131.5,278 123.4,278 			"/>
			<linearGradient id="SVGID_5_" gradientUnits="userSpaceOnUse" x1="93.4368" y1="273.5901" x2="325.9554" y2="273.5901">
				<stop  offset="0.3991" style="stop-color:#F1E690"/>
				<stop  offset="0.5288" style="stop-color:#F9F098"/>
				<stop  offset="0.655" style="stop-color:#F1E690"/>
				<stop  offset="1" style="stop-color:#A48044"/>
			</linearGradient>
			<polygon class="st5" points="144,268.6 144,266.5 132.2,266.5 132.2,269.2 139.8,269.2 132,278.6 132,280.7 144.2,280.7 
				144.2,278 136.2,278 			"/>
			<linearGradient id="SVGID_6_" gradientUnits="userSpaceOnUse" x1="93.4368" y1="273.5901" x2="325.9554" y2="273.5901">
				<stop  offset="0.3991" style="stop-color:#F1E690"/>
				<stop  offset="0.5288" style="stop-color:#F9F098"/>
				<stop  offset="0.655" style="stop-color:#F1E690"/>
				<stop  offset="1" style="stop-color:#A48044"/>
			</linearGradient>
			<path class="st6" d="M155.6,267.2c-1.1-0.6-2.3-0.9-3.7-0.9c-1.4,0-2.7,0.3-3.8,0.9c-1.1,0.6-2,1.5-2.6,2.6
				c-0.6,1.1-0.9,2.3-0.9,3.8c0,1.4,0.3,2.7,1,3.8c0.6,1.1,1.6,1.9,2.7,2.6c1.2,0.6,2.5,0.9,4.1,0.9c1.2,0,2.3-0.2,3.3-0.6
				c1-0.4,1.8-1,2.4-1.7l-1.8-2.1c-0.5,0.5-1.1,0.9-1.7,1.2c-0.6,0.3-1.4,0.4-2.1,0.4c-0.9,0-1.8-0.2-2.5-0.5
				c-0.7-0.4-1.3-0.9-1.6-1.5c-0.2-0.4-0.4-0.9-0.5-1.4H159c0-0.1,0-0.3,0-0.5c0-0.2,0-0.3,0-0.5c0-1.5-0.3-2.8-0.9-3.9
				C157.5,268.7,156.7,267.9,155.6,267.2z M148.3,271c0.3-0.6,0.8-1.1,1.4-1.5c0.6-0.3,1.3-0.5,2.1-0.5c0.8,0,1.5,0.2,2.1,0.5
				c0.6,0.3,1.1,0.8,1.4,1.5c0.2,0.4,0.4,0.9,0.5,1.4h-8C148,271.9,148.1,271.5,148.3,271z"/>
			<linearGradient id="SVGID_7_" gradientUnits="userSpaceOnUse" x1="93.4368" y1="273.4974" x2="325.9554" y2="273.4974">
				<stop  offset="0.3991" style="stop-color:#F1E690"/>
				<stop  offset="0.5288" style="stop-color:#F9F098"/>
				<stop  offset="0.655" style="stop-color:#F1E690"/>
				<stop  offset="1" style="stop-color:#A48044"/>
			</linearGradient>
			<path class="st7" d="M164.1,268.6v-2.1h-3.2v14.2h3.3v-6.8c0-1.5,0.4-2.6,1.1-3.3c0.7-0.7,1.7-1.1,3-1.1c0.1,0,0.2,0,0.3,0
				c0.1,0,0.2,0,0.4,0v-3.2c-1.3,0-2.4,0.3-3.4,0.8C165,267.5,164.5,268,164.1,268.6z"/>
			<linearGradient id="SVGID_8_" gradientUnits="userSpaceOnUse" x1="93.4368" y1="262.1923" x2="325.9554" y2="262.1923">
				<stop  offset="0.3991" style="stop-color:#F1E690"/>
				<stop  offset="0.5288" style="stop-color:#F9F098"/>
				<stop  offset="0.655" style="stop-color:#F1E690"/>
				<stop  offset="1" style="stop-color:#A48044"/>
			</linearGradient>
			<path class="st8" d="M172.3,260.2c-0.6,0-1.1,0.2-1.5,0.6c-0.4,0.4-0.6,0.8-0.6,1.4c0,0.6,0.2,1,0.6,1.4c0.4,0.4,0.9,0.6,1.5,0.6
				c0.6,0,1.1-0.2,1.5-0.6c0.4-0.4,0.6-0.9,0.6-1.4c0-0.6-0.2-1-0.6-1.4C173.4,260.4,172.9,260.2,172.3,260.2z"/>
			<linearGradient id="SVGID_9_" gradientUnits="userSpaceOnUse" x1="93.4368" y1="273.5901" x2="325.9554" y2="273.5901">
				<stop  offset="0.3991" style="stop-color:#F1E690"/>
				<stop  offset="0.5288" style="stop-color:#F9F098"/>
				<stop  offset="0.655" style="stop-color:#F1E690"/>
				<stop  offset="1" style="stop-color:#A48044"/>
			</linearGradient>
			<rect x="170.6" y="266.5" class="st9" width="3.3" height="14.2"/>
			<linearGradient id="SVGID_10_" gradientUnits="userSpaceOnUse" x1="93.4368" y1="273.5901" x2="325.9554" y2="273.5901">
				<stop  offset="0.3991" style="stop-color:#F1E690"/>
				<stop  offset="0.5288" style="stop-color:#F9F098"/>
				<stop  offset="0.655" style="stop-color:#F1E690"/>
				<stop  offset="1" style="stop-color:#A48044"/>
			</linearGradient>
			<path class="st10" d="M182.3,266.3c-1.1,0-2.2,0.2-3.3,0.5c-1,0.3-2,0.7-2.7,1.3l1.3,2.4c0.5-0.4,1.2-0.8,2-1
				c0.8-0.2,1.5-0.4,2.3-0.4c1.2,0,2.1,0.3,2.7,0.8c0.6,0.5,0.9,1.3,0.9,2.3v0.2h-3.7c-1.4,0-2.6,0.2-3.4,0.6
				c-0.9,0.4-1.5,0.9-1.9,1.5c-0.4,0.6-0.6,1.4-0.6,2.1c0,0.8,0.2,1.5,0.6,2.2c0.4,0.6,1,1.1,1.8,1.5c0.8,0.4,1.7,0.5,2.8,0.5
				c1.3,0,2.3-0.2,3.1-0.7c0.6-0.3,1-0.7,1.3-1.2v1.7h3.1v-8.3c0-2-0.6-3.6-1.7-4.6C186,266.8,184.4,266.3,182.3,266.3z
				 M184.1,277.9c-0.6,0.4-1.4,0.6-2.2,0.6c-0.8,0-1.5-0.2-2-0.5c-0.5-0.4-0.7-0.8-0.7-1.4c0-0.5,0.2-1,0.6-1.4
				c0.4-0.4,1.2-0.5,2.3-0.5h3.4v1.6C185.2,277,184.7,277.5,184.1,277.9z"/>
			<linearGradient id="SVGID_11_" gradientUnits="userSpaceOnUse" x1="93.4368" y1="273.2986" x2="325.9554" y2="273.2986">
				<stop  offset="0.3991" style="stop-color:#F1E690"/>
				<stop  offset="0.5288" style="stop-color:#F9F098"/>
				<stop  offset="0.655" style="stop-color:#F1E690"/>
				<stop  offset="1" style="stop-color:#A48044"/>
			</linearGradient>
			<rect x="196.9" y="271.9" class="st11" width="7.3" height="2.8"/>
			<linearGradient id="SVGID_12_" gradientUnits="userSpaceOnUse" x1="93.4368" y1="271.3901" x2="325.9554" y2="271.3901">
				<stop  offset="0.3991" style="stop-color:#F1E690"/>
				<stop  offset="0.5288" style="stop-color:#F9F098"/>
				<stop  offset="0.655" style="stop-color:#F1E690"/>
				<stop  offset="1" style="stop-color:#A48044"/>
			</linearGradient>
			<rect x="212.9" y="262.1" class="st12" width="3.4" height="18.6"/>
			<linearGradient id="SVGID_13_" gradientUnits="userSpaceOnUse" x1="93.4368" y1="273.5901" x2="325.9471" y2="273.5901">
				<stop  offset="0.3991" style="stop-color:#F1E690"/>
				<stop  offset="0.5288" style="stop-color:#F9F098"/>
				<stop  offset="0.655" style="stop-color:#F1E690"/>
				<stop  offset="1" style="stop-color:#A48044"/>
			</linearGradient>
			<path class="st13" d="M223.9,269.7c0.7-0.4,1.4-0.5,2.2-0.5c0.7,0,1.4,0.2,2,0.5c0.6,0.3,1.1,0.8,1.6,1.5l2.5-1.5
				c-0.5-1.1-1.3-1.9-2.4-2.5c-1.1-0.6-2.3-0.8-3.6-0.8c-1.5,0-2.8,0.3-4,0.9s-2.1,1.5-2.7,2.6c-0.7,1.1-1,2.3-1,3.8
				c0,1.4,0.3,2.7,1,3.8s1.6,1.9,2.7,2.6c1.2,0.6,2.5,0.9,4,0.9c1.4,0,2.6-0.3,3.6-0.9c1.1-0.6,1.9-1.4,2.4-2.5l-2.5-1.5
				c-0.4,0.7-0.9,1.2-1.6,1.5c-0.6,0.3-1.3,0.5-2,0.5c-0.8,0-1.5-0.2-2.2-0.5c-0.7-0.4-1.2-0.9-1.5-1.6c-0.4-0.7-0.6-1.5-0.6-2.4
				c0-0.9,0.2-1.7,0.6-2.3C222.8,270.6,223.3,270.1,223.9,269.7z"/>
			<linearGradient id="SVGID_14_" gradientUnits="userSpaceOnUse" x1="93.4368" y1="273.5901" x2="325.9554" y2="273.5901">
				<stop  offset="0.3991" style="stop-color:#F1E690"/>
				<stop  offset="0.5288" style="stop-color:#F9F098"/>
				<stop  offset="0.655" style="stop-color:#F1E690"/>
				<stop  offset="1" style="stop-color:#A48044"/>
			</linearGradient>
			<path class="st14" d="M243.4,267.2c-1.1-0.6-2.3-0.9-3.7-0.9c-1.4,0-2.7,0.3-3.8,0.9c-1.1,0.6-2,1.5-2.6,2.6
				c-0.6,1.1-0.9,2.3-0.9,3.8c0,1.4,0.3,2.7,1,3.8c0.6,1.1,1.6,1.9,2.7,2.6c1.2,0.6,2.5,0.9,4.1,0.9c1.2,0,2.3-0.2,3.3-0.6
				c1-0.4,1.8-1,2.4-1.7l-1.8-2.1c-0.5,0.5-1.1,0.9-1.7,1.2c-0.6,0.3-1.4,0.4-2.1,0.4c-0.9,0-1.8-0.2-2.5-0.5
				c-0.7-0.4-1.3-0.9-1.6-1.5c-0.2-0.4-0.4-0.9-0.5-1.4h11.1c0-0.1,0-0.3,0-0.5c0-0.2,0-0.3,0-0.5c0-1.5-0.3-2.8-0.9-3.9
				C245.3,268.7,244.4,267.9,243.4,267.2z M236.1,271c0.3-0.6,0.8-1.1,1.4-1.5c0.6-0.3,1.3-0.5,2.1-0.5c0.8,0,1.5,0.2,2.1,0.5
				c0.6,0.3,1.1,0.8,1.4,1.5c0.2,0.4,0.4,0.9,0.5,1.4h-8C235.7,271.9,235.9,271.5,236.1,271z"/>
			<linearGradient id="SVGID_15_" gradientUnits="userSpaceOnUse" x1="93.4368" y1="273.5901" x2="325.9471" y2="273.5901">
				<stop  offset="0.3991" style="stop-color:#F1E690"/>
				<stop  offset="0.5288" style="stop-color:#F9F098"/>
				<stop  offset="0.655" style="stop-color:#F1E690"/>
				<stop  offset="1" style="stop-color:#A48044"/>
			</linearGradient>
			<path class="st15" d="M253,269.7c0.7-0.4,1.4-0.5,2.2-0.5c0.7,0,1.4,0.2,2,0.5c0.6,0.3,1.1,0.8,1.6,1.5l2.5-1.5
				c-0.5-1.1-1.3-1.9-2.4-2.5c-1.1-0.6-2.3-0.8-3.6-0.8c-1.5,0-2.8,0.3-4,0.9s-2.1,1.5-2.7,2.6c-0.7,1.1-1,2.3-1,3.8
				c0,1.4,0.3,2.7,1,3.8c0.7,1.1,1.6,1.9,2.7,2.6c1.2,0.6,2.5,0.9,4,0.9c1.4,0,2.6-0.3,3.6-0.9c1.1-0.6,1.9-1.4,2.4-2.5l-2.5-1.5
				c-0.4,0.7-0.9,1.2-1.6,1.5c-0.6,0.3-1.3,0.5-2,0.5c-0.8,0-1.5-0.2-2.2-0.5c-0.7-0.4-1.2-0.9-1.5-1.6c-0.4-0.7-0.6-1.5-0.6-2.4
				c0-0.9,0.2-1.7,0.6-2.3C251.8,270.6,252.3,270.1,253,269.7z"/>
			<linearGradient id="SVGID_16_" gradientUnits="userSpaceOnUse" x1="93.4368" y1="273.4974" x2="325.9554" y2="273.4974">
				<stop  offset="0.3991" style="stop-color:#F1E690"/>
				<stop  offset="0.5288" style="stop-color:#F9F098"/>
				<stop  offset="0.655" style="stop-color:#F1E690"/>
				<stop  offset="1" style="stop-color:#A48044"/>
			</linearGradient>
			<path class="st16" d="M266,268.6v-2.1h-3.2v14.2h3.3v-6.8c0-1.5,0.4-2.6,1.1-3.3c0.7-0.7,1.7-1.1,3-1.1c0.1,0,0.2,0,0.3,0
				c0.1,0,0.2,0,0.4,0v-3.2c-1.3,0-2.4,0.3-3.4,0.8C266.9,267.5,266.4,268,266,268.6z"/>
			<linearGradient id="SVGID_17_" gradientUnits="userSpaceOnUse" x1="93.4368" y1="273.5901" x2="325.9554" y2="273.5901">
				<stop  offset="0.3991" style="stop-color:#F1E690"/>
				<stop  offset="0.5288" style="stop-color:#F9F098"/>
				<stop  offset="0.655" style="stop-color:#F1E690"/>
				<stop  offset="1" style="stop-color:#A48044"/>
			</linearGradient>
			<path class="st17" d="M282.2,267.2c-1.1-0.6-2.3-0.9-3.7-0.9c-1.4,0-2.7,0.3-3.8,0.9c-1.1,0.6-2,1.5-2.6,2.6
				c-0.6,1.1-0.9,2.3-0.9,3.8c0,1.4,0.3,2.7,1,3.8c0.6,1.1,1.6,1.9,2.7,2.6c1.2,0.6,2.5,0.9,4.1,0.9c1.2,0,2.3-0.2,3.3-0.6
				c1-0.4,1.8-1,2.4-1.7l-1.8-2.1c-0.5,0.5-1.1,0.9-1.7,1.2c-0.6,0.3-1.4,0.4-2.1,0.4c-0.9,0-1.8-0.2-2.5-0.5
				c-0.7-0.4-1.3-0.9-1.6-1.5c-0.2-0.4-0.4-0.9-0.5-1.4h11.1c0-0.1,0-0.3,0-0.5c0-0.2,0-0.3,0-0.5c0-1.5-0.3-2.8-0.9-3.9
				C284.1,268.7,283.2,267.9,282.2,267.2z M274.9,271c0.3-0.6,0.8-1.1,1.4-1.5c0.6-0.3,1.3-0.5,2.1-0.5c0.8,0,1.5,0.2,2.1,0.5
				c0.6,0.3,1.1,0.8,1.4,1.5c0.2,0.4,0.4,0.9,0.5,1.4h-8C274.5,271.9,274.7,271.5,274.9,271z"/>
			<linearGradient id="SVGID_18_" gradientUnits="userSpaceOnUse" x1="93.4368" y1="273.5901" x2="325.9554" y2="273.5901">
				<stop  offset="0.3991" style="stop-color:#F1E690"/>
				<stop  offset="0.5288" style="stop-color:#F9F098"/>
				<stop  offset="0.655" style="stop-color:#F1E690"/>
				<stop  offset="1" style="stop-color:#A48044"/>
			</linearGradient>
			<path class="st18" d="M292.5,266.3c-1.1,0-2.2,0.2-3.3,0.5c-1,0.3-2,0.7-2.7,1.3l1.3,2.4c0.5-0.4,1.2-0.8,2-1
				c0.8-0.2,1.5-0.4,2.3-0.4c1.2,0,2.1,0.3,2.7,0.8c0.6,0.5,0.9,1.3,0.9,2.3v0.2H292c-1.4,0-2.6,0.2-3.4,0.6
				c-0.9,0.4-1.5,0.9-1.9,1.5c-0.4,0.6-0.6,1.4-0.6,2.1c0,0.8,0.2,1.5,0.6,2.2c0.4,0.6,1,1.1,1.8,1.5c0.8,0.4,1.7,0.5,2.8,0.5
				c1.3,0,2.3-0.2,3.1-0.7c0.6-0.3,1-0.7,1.3-1.2v1.7h3.1v-8.3c0-2-0.6-3.6-1.7-4.6C296.1,266.8,294.6,266.3,292.5,266.3z
				 M294.2,277.9c-0.6,0.4-1.4,0.6-2.2,0.6c-0.8,0-1.5-0.2-2-0.5c-0.5-0.4-0.7-0.8-0.7-1.4c0-0.5,0.2-1,0.6-1.4
				c0.4-0.4,1.2-0.5,2.3-0.5h3.4v1.6C295.3,277,294.9,277.5,294.2,277.9z"/>
			<linearGradient id="SVGID_19_" gradientUnits="userSpaceOnUse" x1="93.4368" y1="273.4974" x2="325.9554" y2="273.4974">
				<stop  offset="0.3991" style="stop-color:#F1E690"/>
				<stop  offset="0.5288" style="stop-color:#F9F098"/>
				<stop  offset="0.655" style="stop-color:#F1E690"/>
				<stop  offset="1" style="stop-color:#A48044"/>
			</linearGradient>
			<path class="st19" d="M324.8,269c-0.5-0.9-1.2-1.6-2.1-2c-0.9-0.4-1.9-0.7-3-0.7c-1.4,0-2.6,0.3-3.7,1c-0.7,0.4-1.2,0.9-1.6,1.4
				c-0.3-0.6-0.8-1.1-1.3-1.4c-1-0.7-2.1-1-3.4-1c-1.2,0-2.2,0.2-3.1,0.7c-0.6,0.3-1.1,0.7-1.5,1.2v-1.8h-3.2v14.2h3.3v-7.2
				c0-0.9,0.2-1.7,0.5-2.3c0.3-0.6,0.7-1.1,1.3-1.4c0.6-0.3,1.2-0.5,1.9-0.5c1,0,1.8,0.3,2.4,0.9c0.6,0.6,0.8,1.6,0.8,2.8v7.7h3.3
				v-7.2c0-0.9,0.2-1.7,0.5-2.3c0.3-0.6,0.7-1.1,1.3-1.4c0.6-0.3,1.2-0.5,1.9-0.5c1,0,1.8,0.3,2.4,0.9c0.6,0.6,0.8,1.6,0.8,2.8v7.7
				h3.3v-8.1C325.5,271.1,325.3,270,324.8,269z"/>
		</g>
		<g class="st20">
			<g class="st21">
				<g>
					<path class="st22" d="M95.9,280.7v-18.6h7.6c1.6,0,3.1,0.3,4.2,0.8c1.2,0.5,2.1,1.3,2.7,2.3c0.6,1,1,2.2,1,3.6
						c0,1.4-0.3,2.5-1,3.5c-0.6,1-1.5,1.7-2.7,2.3c-1.2,0.5-2.6,0.8-4.2,0.8h-5.7l1.5-1.6v6.9H95.9z M99.3,274.1l-1.5-1.7h5.5
						c1.5,0,2.7-0.3,3.4-1c0.8-0.6,1.2-1.6,1.2-2.7s-0.4-2.1-1.2-2.7c-0.8-0.6-1.9-1-3.4-1h-5.5l1.5-1.7V274.1z"/>
					<path class="st22" d="M115.1,264.2c-0.6,0-1.1-0.2-1.5-0.6c-0.4-0.4-0.6-0.9-0.6-1.4c0-0.5,0.2-1,0.6-1.4s0.9-0.6,1.5-0.6
						c0.6,0,1.1,0.2,1.5,0.5s0.6,0.8,0.6,1.4s-0.2,1-0.6,1.4S115.8,264.2,115.1,264.2z M113.5,280.7v-14.2h3.3v14.2H113.5z"/>
					<path class="st22" d="M118.6,280.7v-2.1l8.7-10.5l0.6,1.1h-9.2v-2.7h11.8v2.1l-8.7,10.5l-0.7-1.1h9.6v2.7H118.6z"/>
					<path class="st22" d="M131.4,280.7v-2.1l8.7-10.5l0.6,1.1h-9.2v-2.7h11.8v2.1l-8.7,10.5L134,278h9.6v2.7H131.4z"/>
					<path class="st22" d="M152,280.9c-1.6,0-2.9-0.3-4.1-0.9c-1.2-0.6-2.1-1.5-2.7-2.6c-0.6-1.1-1-2.3-1-3.8c0-1.4,0.3-2.7,0.9-3.8
						c0.6-1.1,1.5-1.9,2.6-2.6c1.1-0.6,2.4-0.9,3.8-0.9c1.4,0,2.6,0.3,3.7,0.9c1.1,0.6,1.9,1.5,2.5,2.6s0.9,2.4,0.9,3.9
						c0,0.1,0,0.3,0,0.5c0,0.2,0,0.3,0,0.5h-11.8v-2.2h10l-1.3,0.7c0-0.8-0.1-1.5-0.5-2.1s-0.8-1.1-1.4-1.5s-1.3-0.5-2.1-0.5
						c-0.8,0-1.5,0.2-2.1,0.5c-0.6,0.3-1.1,0.8-1.4,1.5c-0.3,0.6-0.5,1.4-0.5,2.2v0.5c0,0.8,0.2,1.6,0.6,2.3
						c0.4,0.7,0.9,1.2,1.6,1.5c0.7,0.4,1.5,0.5,2.5,0.5c0.8,0,1.5-0.1,2.1-0.4c0.6-0.3,1.2-0.7,1.7-1.2l1.8,2.1
						c-0.7,0.7-1.5,1.3-2.4,1.7C154.3,280.7,153.2,280.9,152,280.9z"/>
					<path class="st22" d="M160.5,280.7v-14.2h3.2v3.9l-0.4-1.1c0.4-1,1.1-1.7,2-2.2c0.9-0.5,2-0.8,3.4-0.8v3.2c-0.1,0-0.2,0-0.4,0
						c-0.1,0-0.2,0-0.3,0c-1.3,0-2.3,0.4-3,1.1c-0.7,0.7-1.1,1.8-1.1,3.3v6.8H160.5z"/>
					<path class="st22" d="M172,264.2c-0.6,0-1.1-0.2-1.5-0.6c-0.4-0.4-0.6-0.9-0.6-1.4c0-0.5,0.2-1,0.6-1.4s0.9-0.6,1.5-0.6
						c0.6,0,1.1,0.2,1.5,0.5s0.6,0.8,0.6,1.4s-0.2,1-0.6,1.4S172.6,264.2,172,264.2z M170.4,280.7v-14.2h3.3v14.2H170.4z"/>
					<path class="st22" d="M180.9,280.9c-1.1,0-2-0.2-2.8-0.5c-0.8-0.4-1.4-0.9-1.8-1.5c-0.4-0.6-0.6-1.4-0.6-2.2
						c0-0.8,0.2-1.5,0.6-2.1c0.4-0.6,1-1.1,1.9-1.5c0.9-0.4,2-0.6,3.4-0.6h4.1v2.2h-3.9c-1.1,0-1.9,0.2-2.3,0.5
						c-0.4,0.4-0.6,0.8-0.6,1.4c0,0.6,0.2,1.1,0.7,1.4c0.5,0.4,1.1,0.5,2,0.5c0.8,0,1.5-0.2,2.2-0.6c0.6-0.4,1.1-0.9,1.4-1.6l0.5,2
						c-0.3,0.8-0.9,1.5-1.7,1.9C183.2,280.6,182.2,280.9,180.9,280.9z M185.4,280.7v-2.9l-0.2-0.6v-5c0-1-0.3-1.7-0.9-2.3
						s-1.5-0.8-2.7-0.8c-0.8,0-1.5,0.1-2.3,0.4c-0.8,0.2-1.4,0.6-2,1l-1.3-2.4c0.8-0.6,1.7-1,2.7-1.3c1-0.3,2.1-0.5,3.3-0.5
						c2.1,0,3.7,0.5,4.8,1.5c1.1,1,1.7,2.5,1.7,4.6v8.3H185.4z"/>
					<path class="st22" d="M196.7,274.7v-2.8h7.3v2.8H196.7z"/>
					<path class="st22" d="M212.6,280.7v-18.6h3.4v18.6H212.6z"/>
					<path class="st22" d="M225.9,280.9c-1.5,0-2.8-0.3-4-0.9c-1.2-0.6-2.1-1.5-2.7-2.6c-0.7-1.1-1-2.3-1-3.8c0-1.4,0.3-2.7,1-3.8
						c0.7-1.1,1.6-1.9,2.7-2.6c1.2-0.6,2.5-0.9,4-0.9c1.4,0,2.6,0.3,3.6,0.8s1.9,1.4,2.4,2.5l-2.5,1.5c-0.4-0.7-0.9-1.1-1.6-1.5
						c-0.6-0.3-1.3-0.5-2-0.5c-0.8,0-1.5,0.2-2.2,0.5c-0.7,0.4-1.2,0.9-1.5,1.5c-0.4,0.7-0.6,1.4-0.6,2.3s0.2,1.7,0.6,2.4
						s0.9,1.2,1.5,1.5c0.7,0.4,1.4,0.5,2.2,0.5c0.7,0,1.4-0.2,2-0.5c0.6-0.3,1.1-0.8,1.6-1.5l2.5,1.5c-0.5,1.1-1.3,1.9-2.4,2.5
						S227.3,280.9,225.9,280.9z"/>
					<path class="st22" d="M240.1,280.9c-1.6,0-2.9-0.3-4.1-0.9c-1.2-0.6-2.1-1.5-2.7-2.6c-0.6-1.1-1-2.3-1-3.8
						c0-1.4,0.3-2.7,0.9-3.8c0.6-1.1,1.5-1.9,2.6-2.6c1.1-0.6,2.4-0.9,3.8-0.9c1.4,0,2.6,0.3,3.7,0.9c1.1,0.6,1.9,1.5,2.5,2.6
						s0.9,2.4,0.9,3.9c0,0.1,0,0.3,0,0.5c0,0.2,0,0.3,0,0.5h-11.8v-2.2h10l-1.3,0.7c0-0.8-0.1-1.5-0.5-2.1s-0.8-1.1-1.4-1.5
						s-1.3-0.5-2.1-0.5c-0.8,0-1.5,0.2-2.1,0.5c-0.6,0.3-1.1,0.8-1.4,1.5c-0.3,0.6-0.5,1.4-0.5,2.2v0.5c0,0.8,0.2,1.6,0.6,2.3
						c0.4,0.7,0.9,1.2,1.6,1.5c0.7,0.4,1.5,0.5,2.5,0.5c0.8,0,1.5-0.1,2.1-0.4c0.6-0.3,1.2-0.7,1.7-1.2l1.8,2.1
						c-0.7,0.7-1.5,1.3-2.4,1.7C242.5,280.7,241.4,280.9,240.1,280.9z"/>
					<path class="st22" d="M255.1,280.9c-1.5,0-2.8-0.3-4-0.9c-1.2-0.6-2.1-1.5-2.7-2.6c-0.7-1.1-1-2.3-1-3.8c0-1.4,0.3-2.7,1-3.8
						c0.7-1.1,1.6-1.9,2.7-2.6c1.2-0.6,2.5-0.9,4-0.9c1.4,0,2.6,0.3,3.6,0.8s1.9,1.4,2.4,2.5l-2.5,1.5c-0.4-0.7-0.9-1.1-1.6-1.5
						c-0.6-0.3-1.3-0.5-2-0.5c-0.8,0-1.5,0.2-2.2,0.5c-0.7,0.4-1.2,0.9-1.5,1.5c-0.4,0.7-0.6,1.4-0.6,2.3s0.2,1.7,0.6,2.4
						s0.9,1.2,1.5,1.5c0.7,0.4,1.4,0.5,2.2,0.5c0.7,0,1.4-0.2,2-0.5c0.6-0.3,1.1-0.8,1.6-1.5l2.5,1.5c-0.5,1.1-1.3,1.9-2.4,2.5
						S256.5,280.9,255.1,280.9z"/>
					<path class="st22" d="M262.7,280.7v-14.2h3.2v3.9l-0.4-1.1c0.4-1,1.1-1.7,2-2.2c0.9-0.5,2-0.8,3.4-0.8v3.2c-0.1,0-0.2,0-0.4,0
						c-0.1,0-0.2,0-0.3,0c-1.3,0-2.3,0.4-3,1.1c-0.7,0.7-1.1,1.8-1.1,3.3v6.8H262.7z"/>
					<path class="st22" d="M279.2,280.9c-1.6,0-2.9-0.3-4.1-0.9c-1.2-0.6-2.1-1.5-2.7-2.6c-0.6-1.1-1-2.3-1-3.8
						c0-1.4,0.3-2.7,0.9-3.8c0.6-1.1,1.5-1.9,2.6-2.6c1.1-0.6,2.4-0.9,3.8-0.9c1.4,0,2.6,0.3,3.7,0.9c1.1,0.6,1.9,1.5,2.5,2.6
						s0.9,2.4,0.9,3.9c0,0.1,0,0.3,0,0.5c0,0.2,0,0.3,0,0.5H274v-2.2h10l-1.3,0.7c0-0.8-0.1-1.5-0.5-2.1s-0.8-1.1-1.4-1.5
						s-1.3-0.5-2.1-0.5c-0.8,0-1.5,0.2-2.1,0.5c-0.6,0.3-1.1,0.8-1.4,1.5c-0.3,0.6-0.5,1.4-0.5,2.2v0.5c0,0.8,0.2,1.6,0.6,2.3
						c0.4,0.7,0.9,1.2,1.6,1.5c0.7,0.4,1.5,0.5,2.5,0.5c0.8,0,1.5-0.1,2.1-0.4c0.6-0.3,1.2-0.7,1.7-1.2l1.8,2.1
						c-0.7,0.7-1.5,1.3-2.4,1.7C281.5,280.7,280.4,280.9,279.2,280.9z"/>
					<path class="st22" d="M292,280.9c-1.1,0-2-0.2-2.8-0.5c-0.8-0.4-1.4-0.9-1.8-1.5c-0.4-0.6-0.6-1.4-0.6-2.2
						c0-0.8,0.2-1.5,0.6-2.1c0.4-0.6,1-1.1,1.9-1.5c0.9-0.4,2-0.6,3.4-0.6h4.1v2.2h-3.9c-1.1,0-1.9,0.2-2.3,0.5
						c-0.4,0.4-0.6,0.8-0.6,1.4c0,0.6,0.2,1.1,0.7,1.4c0.5,0.4,1.1,0.5,2,0.5c0.8,0,1.5-0.2,2.2-0.6c0.6-0.4,1.1-0.9,1.4-1.6l0.5,2
						c-0.3,0.8-0.9,1.5-1.7,1.9C294.3,280.6,293.2,280.9,292,280.9z M296.4,280.7v-2.9l-0.2-0.6v-5c0-1-0.3-1.7-0.9-2.3
						s-1.5-0.8-2.7-0.8c-0.8,0-1.5,0.1-2.3,0.4c-0.8,0.2-1.4,0.6-2,1l-1.3-2.4c0.8-0.6,1.7-1,2.7-1.3c1-0.3,2.1-0.5,3.3-0.5
						c2.1,0,3.7,0.5,4.8,1.5c1.1,1,1.7,2.5,1.7,4.6v8.3H296.4z"/>
					<path class="st22" d="M320.3,266.3c1.1,0,2.1,0.2,3,0.7c0.9,0.4,1.6,1.1,2.1,2c0.5,0.9,0.7,2.1,0.7,3.5v8.1h-3.3V273
						c0-1.3-0.3-2.2-0.8-2.8c-0.6-0.6-1.3-0.9-2.4-0.9c-0.7,0-1.4,0.2-1.9,0.5c-0.6,0.3-1,0.8-1.3,1.4c-0.3,0.6-0.5,1.4-0.5,2.3v7.2
						h-3.3V273c0-1.3-0.3-2.2-0.8-2.8c-0.6-0.6-1.3-0.9-2.4-0.9c-0.7,0-1.4,0.2-1.9,0.5c-0.6,0.3-1,0.8-1.3,1.4
						c-0.3,0.6-0.5,1.4-0.5,2.3v7.2h-3.3v-14.2h3.2v3.8l-0.6-1.1c0.5-0.9,1.2-1.6,2.1-2.1c0.9-0.5,2-0.7,3.1-0.7
						c1.3,0,2.5,0.3,3.4,1c1,0.7,1.6,1.7,1.9,3l-1.3-0.5c0.4-1,1.2-1.9,2.3-2.5C317.7,266.7,318.9,266.3,320.3,266.3z"/>
				</g>
			</g>
		</g>
		<g>
			<g>
				<path class="st22" d="M76.2,251.1h-11v-47.1h11V251.1z M85.9,251.1h11.9V236c-1.1,2.1-2.3,4.2-3.5,6.1c-1.1,1.6-2.4,3.3-3.8,5
					C89.1,248.8,87.5,250.2,85.9,251.1z"/>
				<path class="st22" d="M128.6,247.3c1.5,0,2.8-0.1,4-0.4c-1.7,1.6-3.7,2.9-6,3.8c-2.3,0.9-4.7,1.4-7.4,1.4c-2.6,0-5-0.5-7.3-1.4
					c-2.3-0.9-4.3-2.1-6-3.7c-1.7-1.6-3-3.4-4-5.5c-1-2.1-1.5-4.4-1.5-6.8c0-2.3,0.4-4.5,1.3-6.5c0.8-2,2-3.8,3.4-5.3
					c1.4-1.5,3.2-2.8,5.1-3.7c2-0.9,4.1-1.5,6.3-1.6c-1.6,1.8-2.7,3.7-3.4,5.9c-0.7,2.2-1.1,4.6-1.1,7.4c0,2.4,0.4,4.7,1.3,6.7
					c0.9,2,2,3.7,3.6,5.2c1.5,1.4,3.3,2.6,5.3,3.4C124.1,246.9,126.2,247.3,128.6,247.3z M125.3,235.5c0.1-0.7,0.2-1.3,0.3-2
					c0.1-0.7,0.1-1.4,0.1-2.1c0-2.8-0.4-5.4-1.1-7.6c-0.7-2.3-1.8-4.3-3.4-6.1c2.2,0.1,4.3,0.7,6.3,1.7c2,1,3.7,2.3,5.1,3.9
					c1.4,1.6,2.6,3.4,3.4,5.5c0.8,2.1,1.3,4.3,1.3,6.7v0.1H125.3z"/>
				<path class="st22" d="M165.9,250.8c-2.5,0-4.8-0.6-7.1-1.9c-2.2-1.2-4.2-2.9-5.9-5c-1.7-2.1-3.1-4.6-4.1-7.4
					c-1-2.8-1.5-5.9-1.5-9.1c0-3.2,0.5-6.3,1.5-9.1c1-2.8,2.3-5.3,4-7.4c1.7-2.1,3.6-3.7,5.8-5c2.2-1.2,4.5-1.8,7-1.8h0.4
					c-0.8,0.9-1.6,2.1-2.3,3.6c-0.7,1.6-1.3,3.3-1.8,5.4c-0.5,2-0.9,4.3-1.2,6.7c-0.3,2.4-0.4,4.9-0.4,7.6s0.1,5.2,0.4,7.6
					c0.3,2.4,0.7,4.6,1.2,6.7c0.5,2,1.1,3.8,1.8,5.4c0.7,1.6,1.5,2.8,2.3,3.7H165.9z M186.9,234.9v16.2h-12.4
					c1.6-1.2,3.2-2.6,4.8-4.1c1.3-1.3,2.7-3,4.1-5C184.8,239.9,186,237.6,186.9,234.9z M188.1,215.1c-0.3,0.7-0.8,1.3-1.3,1.9
					c-0.5,0.5-1.2,1-1.9,1.2c-0.7,0.3-1.4,0.4-2.2,0.4c-0.8,0-1.5-0.1-2.2-0.5c-0.8-0.3-1.4-0.7-1.9-1.3c-0.5-0.6-0.9-1.2-1.2-1.9
					c-0.3-0.7-0.4-1.4-0.4-2.2c0-0.8,0.1-1.5,0.5-2.2c0.5-1.1,0.7-2,0.6-2.9c-0.1-0.8-0.2-1.5-0.5-2c-0.3-0.6-0.7-1.2-1.2-1.6
					c0.9,0,1.9,0.1,3,0.3c0.9,0.2,1.8,0.5,2.9,0.8c1,0.4,2.1,1,3.2,1.9C188.3,209.5,189.2,212.2,188.1,215.1z"/>
				<path class="st22" d="M200.6,251c-2.2,0-4.1-0.3-5.5-0.8s-2.6-1.2-3.4-2c-0.8-0.8-1.4-1.7-1.7-2.7c-0.3-1-0.5-1.9-0.5-2.8
					c0-0.9,0.2-1.8,0.5-2.8c0.4-1,1-1.9,1.8-2.7c0.8-0.8,2-1.5,3.4-2c1.4-0.5,3.2-0.8,5.4-0.8h5.5c-1.7,0.6-3.1,1.6-4.2,3.1
					c-1.1,1.5-1.6,3.2-1.6,5.2c0,1.9,0.5,3.6,1.6,5.2c1.1,1.5,2.5,2.6,4.2,3.1h-4.8H200.6z M194.4,229.5c0.5,0.5,1.1,0.8,1.7,1
					c0.6,0.2,1.3,0.3,2,0.3c0.7,0,1.4-0.1,2-0.4c0.7-0.3,1.2-0.7,1.7-1.2c0.5-0.5,0.8-1.1,1.1-1.7c0.3-0.6,0.4-1.3,0.3-2
					c0-0.7-0.2-1.4-0.5-2c-0.5-1-0.7-1.8-0.6-2.5c0-0.7,0.2-1.4,0.4-1.9c0.3-0.6,0.6-1.1,1.1-1.5c-0.8,0-1.7,0.1-2.6,0.3
					c-0.8,0.2-1.7,0.5-2.6,0.8c-0.9,0.4-1.9,1-2.8,1.7c-2.6,2.2-3.4,4.7-2.3,7.3C193.5,228.5,193.9,229,194.4,229.5z M218,220.2
					c1.3,0.9,2.5,2.1,3.5,3.4c1,1.3,1.8,2.8,2.4,4.5c0.6,1.7,0.9,3.4,0.9,5.3v17.7h-11.5v-18.6v-14.5l0.6,0.1
					C215.3,218.6,216.7,219.2,218,220.2z"/>
				<path class="st22" d="M229.9,222.5c1.3-0.3,2.6-0.8,3.9-1.4c1.3-0.6,2.5-1.2,3.6-1.9c1-0.6,1.9-1.2,2.5-1.8c0.6-0.5,1-0.9,1-1.1
					v34.6h-11V222.5z M257.6,218.6c1.2,1,1.8,2.2,1.9,3.6c0.1,1.4-0.3,2.7-1.2,3.9c-1,1.2-2.2,1.8-3.6,1.9c-1.5,0.1-2.8-0.3-4-1.3
					c-0.8-0.7-1.6-1.2-2.4-1.3c-0.8-0.2-1.4-0.2-2-0.1c-0.7,0.1-1.3,0.3-1.9,0.6c0.3-0.9,0.7-1.7,1.1-2.6c0.4-0.7,1-1.5,1.6-2.3
					c0.7-0.8,1.5-1.6,2.6-2.3C252.8,216.8,255.4,216.7,257.6,218.6z"/>
				<path class="st22" d="M264,221.7c1.7-0.9,3.1-1.7,4.3-2.5c1.4-0.8,2.7-1.7,3.9-2.5v34.4h-11V232c0-1.6-0.1-2.9-0.4-3.9
					c-0.3-1-0.6-1.8-0.9-2.4c-0.4-0.7-0.9-1.2-1.3-1.4C260.5,223.5,262.3,222.6,264,221.7z M272.6,204.3c-0.3-0.7-0.7-1.4-1.3-1.9
					c-0.5-0.5-1.2-1-1.9-1.3c-0.7-0.3-1.5-0.5-2.3-0.5c-0.8,0-1.6,0.2-2.4,0.5c-0.7,0.3-1.4,0.7-1.9,1.3c-0.5,0.5-0.9,1.2-1.3,1.9
					c-0.3,0.7-0.5,1.5-0.5,2.3c0,0.8,0.2,1.6,0.5,2.3c0.3,0.7,0.7,1.3,1.3,1.9c0.5,0.5,1.2,1,1.9,1.3c0.7,0.3,1.5,0.5,2.4,0.5
					c0.8,0,1.6-0.2,2.3-0.5c0.7-0.3,1.4-0.7,1.9-1.3c0.5-0.5,1-1.2,1.3-1.9c0.3-0.7,0.5-1.5,0.5-2.3
					C273.1,205.8,272.9,205.1,272.6,204.3z"/>
				<path class="st22" d="M279.1,222.1c1.6-0.2,3.1-0.5,4.5-1c1.4-0.4,2.6-0.9,3.7-1.4c1.2-0.5,2.3-1.1,3.4-1.7v33h-11.6V222.1z
					 M301.3,218.1c1.5,0.4,2.9,1,4.2,2c1.3,0.9,2.5,2.1,3.5,3.4c1,1.3,1.8,2.8,2.4,4.5c0.6,1.7,0.9,3.4,0.9,5.3v17.7h-11.5v-18.6
					V218c0.1,0,0.2,0.1,0.3,0.1C301.1,218.1,301.2,218.1,301.3,218.1z"/>
				<path class="st22" d="M330.7,251.1c-2.1,0-4.2-0.4-6.1-1.3c-1.9-0.9-3.6-2-5-3.5c-1.4-1.5-2.5-3.2-3.4-5.2
					c-0.8-2-1.2-4.1-1.2-6.4c0-2.3,0.4-4.5,1.2-6.5c0.8-2,1.9-3.8,3.4-5.2c1.4-1.5,3.1-2.7,5-3.5c1.9-0.9,3.9-1.3,6.1-1.3h1
					c-0.8,0.7-1.4,1.6-2,2.7c-0.6,1.1-1.1,2.4-1.6,3.8c-0.4,1.4-0.8,3-1,4.7c-0.3,1.7-0.4,3.5-0.4,5.3c0,1.8,0.1,3.6,0.4,5.3
					c0.3,1.7,0.6,3.3,1,4.7c0.4,1.4,1,2.7,1.6,3.8c0.6,1.1,1.3,2,2,2.6H330.7z M339.7,218.1c2.1,0,4.2,0.4,6.1,1.3
					c1.9,0.9,3.6,2,5,3.5c1.4,1.5,2.5,3.2,3.4,5.2c0.8,2,1.2,4.2,1.2,6.5c0,2.3-0.4,4.4-1.2,6.4c-0.8,2-1.9,3.7-3.4,5.2
					c-1.4,1.5-3.1,2.7-5,3.5c-1.9,0.9-3.9,1.3-6.1,1.3h-1c0.8-0.7,1.4-1.6,2-2.6c0.6-1.1,1.1-2.3,1.6-3.8s0.8-3,1-4.7
					s0.4-3.5,0.4-5.3c0-1.8-0.1-3.6-0.4-5.3c-0.3-1.7-0.6-3.3-1-4.7c-0.4-1.4-1-2.7-1.6-3.8c-0.6-1.1-1.3-2-2-2.7H339.7z"/>
			</g>
			<g>
				<linearGradient id="SVGID_20_" gradientUnits="userSpaceOnUse" x1="170.5298" y1="185.1871" x2="175.6155" y2="185.1871">
					<stop  offset="1.100000e-06" style="stop-color:#A3662A"/>
					<stop  offset="0.3991" style="stop-color:#F1E690"/>
					<stop  offset="0.5288" style="stop-color:#F9F098"/>
					<stop  offset="0.655" style="stop-color:#F1E690"/>
					<stop  offset="1" style="stop-color:#A48044"/>
				</linearGradient>
				<rect x="170.5" y="182.6" class="st23" width="5.1" height="5.1"/>
				<linearGradient id="SVGID_21_" gradientUnits="userSpaceOnUse" x1="178.2476" y1="185.1871" x2="183.3333" y2="185.1871">
					<stop  offset="1.100000e-06" style="stop-color:#A3662A"/>
					<stop  offset="0.3991" style="stop-color:#F1E690"/>
					<stop  offset="0.5288" style="stop-color:#F9F098"/>
					<stop  offset="0.655" style="stop-color:#F1E690"/>
					<stop  offset="1" style="stop-color:#A48044"/>
				</linearGradient>
				<rect x="178.2" y="182.6" class="st24" width="5.1" height="5.1"/>
				<linearGradient id="SVGID_22_" gradientUnits="userSpaceOnUse" x1="170.5298" y1="192.4588" x2="175.6155" y2="192.4588">
					<stop  offset="1.100000e-06" style="stop-color:#A3662A"/>
					<stop  offset="0.3991" style="stop-color:#F1E690"/>
					<stop  offset="0.5288" style="stop-color:#F9F098"/>
					<stop  offset="0.655" style="stop-color:#F1E690"/>
					<stop  offset="1" style="stop-color:#A48044"/>
				</linearGradient>
				<rect x="170.5" y="189.9" class="st25" width="5.1" height="5.1"/>
				<linearGradient id="SVGID_23_" gradientUnits="userSpaceOnUse" x1="178.2476" y1="192.4588" x2="183.3333" y2="192.4588">
					<stop  offset="1.100000e-06" style="stop-color:#A3662A"/>
					<stop  offset="0.3991" style="stop-color:#F1E690"/>
					<stop  offset="0.5288" style="stop-color:#F9F098"/>
					<stop  offset="0.655" style="stop-color:#F1E690"/>
					<stop  offset="1" style="stop-color:#A48044"/>
				</linearGradient>
				<rect x="178.2" y="189.9" class="st26" width="5.1" height="5.1"/>
				<linearGradient id="SVGID_24_" gradientUnits="userSpaceOnUse" x1="117.3084" y1="155.4759" x2="303.2042" y2="155.4759">
					<stop  offset="1.100000e-06" style="stop-color:#A3662A"/>
					<stop  offset="0.3991" style="stop-color:#F1E690"/>
					<stop  offset="0.5288" style="stop-color:#F9F098"/>
					<stop  offset="0.655" style="stop-color:#F1E690"/>
					<stop  offset="1" style="stop-color:#A48044"/>
				</linearGradient>
				<path class="st27" d="M266.8,167.8v-38.1l-23.6-14.1l-33,19.3l-33.4-19.3l-23.7,13.7v39.3l-35.9,19.9v6l59.6-34.1l60.2,34.9
					v-6.7l-21.7-11.9l27.3-16.2l60.5,34.8v-6.6L266.8,167.8z M176.9,122.3l27.8,15.7l-27.8,15.7V122.3z M242.7,153.7L210.3,173
					l-27.8-15.5l60.2-35.2V153.7z"/>
			</g>
			<linearGradient id="SVGID_25_" gradientUnits="userSpaceOnUse" x1="1692.4323" y1="92.1056" x2="1455.2186" y2="95.8315">
				<stop  offset="1.100000e-06" style="stop-color:#A3662A"/>
				<stop  offset="0.3991" style="stop-color:#F1E690"/>
				<stop  offset="0.5288" style="stop-color:#F9F098"/>
				<stop  offset="0.655" style="stop-color:#F1E690"/>
			</linearGradient>
			<polygon class="st28" points="200,109.8 201.4,114.2 206,114.2 202.3,116.9 203.7,121.2 200,118.5 196.3,121.2 197.8,116.9 
				194.1,114.2 198.6,114.2 			"/>
			<linearGradient id="SVGID_26_" gradientUnits="userSpaceOnUse" x1="1149.3649" y1="88.7844" x2="997.3991" y2="91.1713">
				<stop  offset="1.100000e-06" style="stop-color:#A3662A"/>
				<stop  offset="0.3991" style="stop-color:#F1E690"/>
				<stop  offset="0.5288" style="stop-color:#F9F098"/>
				<stop  offset="0.655" style="stop-color:#F1E690"/>
			</linearGradient>
			<polygon class="st29" points="193.3,100.1 194.2,102.9 197.1,102.9 194.8,104.6 195.7,107.4 193.3,105.7 190.9,107.4 
				191.8,104.6 189.5,102.9 192.4,102.9 			"/>
			<linearGradient id="SVGID_27_" gradientUnits="userSpaceOnUse" x1="1293.9896" y1="78.2023" x2="1120.4646" y2="80.9278">
				<stop  offset="1.100000e-06" style="stop-color:#A3662A"/>
				<stop  offset="0.3991" style="stop-color:#F1E690"/>
				<stop  offset="0.5288" style="stop-color:#F9F098"/>
				<stop  offset="0.655" style="stop-color:#F1E690"/>
			</linearGradient>
			<polygon class="st30" points="202.3,91.2 203.3,94.3 206.6,94.3 203.9,96.3 205,99.5 202.3,97.5 199.6,99.5 200.6,96.3 
				197.9,94.3 201.3,94.3 			"/>
			<linearGradient id="SVGID_28_" gradientUnits="userSpaceOnUse" x1="1245.8256" y1="103.8702" x2="1081.8263" y2="106.4461">
				<stop  offset="1.100000e-06" style="stop-color:#A3662A"/>
				<stop  offset="0.3991" style="stop-color:#F1E690"/>
				<stop  offset="0.5288" style="stop-color:#F9F098"/>
				<stop  offset="0.655" style="stop-color:#F1E690"/>
			</linearGradient>
			<polygon class="st31" points="214,116.1 215,119.1 218.2,119.1 215.6,121 216.6,124 214,122.1 211.5,124 212.5,121 209.9,119.1 
				213.1,119.1 			"/>
			<linearGradient id="SVGID_29_" gradientUnits="userSpaceOnUse" x1="1142.7133" y1="90.3694" x2="994.4951" y2="92.6974">
				<stop  offset="1.100000e-06" style="stop-color:#A3662A"/>
				<stop  offset="0.3991" style="stop-color:#F1E690"/>
				<stop  offset="0.5288" style="stop-color:#F9F098"/>
				<stop  offset="0.655" style="stop-color:#F1E690"/>
			</linearGradient>
			<polygon class="st32" points="210.2,101.5 211.1,104.2 213.9,104.2 211.6,105.8 212.5,108.5 210.2,106.9 207.9,108.5 
				208.8,105.8 206.5,104.2 209.3,104.2 			"/>
			<linearGradient id="SVGID_30_" gradientUnits="userSpaceOnUse" x1="730.7099" y1="82.1767" x2="648.8533" y2="83.4624">
				<stop  offset="1.100000e-06" style="stop-color:#A3662A"/>
				<stop  offset="0.3991" style="stop-color:#F1E690"/>
				<stop  offset="0.5288" style="stop-color:#F9F098"/>
				<stop  offset="0.655" style="stop-color:#F1E690"/>
			</linearGradient>
			<polygon class="st33" points="215.7,88.3 216.2,89.8 217.8,89.8 216.5,90.7 217,92.2 215.7,91.3 214.4,92.2 214.9,90.7 
				213.7,89.8 215.2,89.8 			"/>
		</g>
		
			<linearGradient id="SVGID_31_" gradientUnits="userSpaceOnUse" x1="2361.6899" y1="4324.4873" x2="2431.697" y2="4394.4941" gradientTransform="matrix(-0.9316 0.3634 0.3634 0.9316 980.2035 -4692.8296)">
			<stop  offset="1.281420e-03" style="stop-color:#FFFFFF"/>
			<stop  offset="9.382036e-03" style="stop-color:#FFF8F6;stop-opacity:0.9581"/>
			<stop  offset="3.706584e-02" style="stop-color:#FDE5D9;stop-opacity:0.8151"/>
			<stop  offset="6.704262e-02" style="stop-color:#FBD5C3;stop-opacity:0.6602"/>
			<stop  offset="0.1001" style="stop-color:#FAC9B3;stop-opacity:0.4896"/>
			<stop  offset="0.1384" style="stop-color:#F9C2AA;stop-opacity:0.2914"/>
			<stop  offset="0.1948" style="stop-color:#F9C0A7;stop-opacity:0"/>
		</linearGradient>
		<circle class="st34" cx="331.7" cy="239.4" r="49.5"/>
	</g>
</g>
</svg>
