<?xml version="1.0" encoding="utf-8"?>
<!-- Generator: Adobe Illustrator 25.2.0, SVG Export Plug-In . SVG Version: 6.00 Build 0)  -->
<svg version="1.1" id="Calque_1" xmlns="http://www.w3.org/2000/svg" xmlns:xlink="http://www.w3.org/1999/xlink" x="0px" y="0px"
	 viewBox="0 0 676 184" style="enable-background:new 0 0 676 184;" xml:space="preserve">
<style type="text/css">
	.st0{fill:#CE2337;}
	.st1{fill:#4B5665;}
	.st2{fill:#1A8DA8;}
	.st3{fill:#F29303;}
	.st4{enable-background:new    ;}
	.st5{fill:#878786;}
</style>
<g>
	<path class="st0" d="M194.5,72.9c0,16.4,0,32.7,0,49.1c0,1.6-0.6,1.7-1.9,1.3c-5.3-1.6-10.8-3.3-16.1-4.9c-8.5-2.4-16.8-5.3-25.2-8
		c-10.9-3.6-21.5-7.6-31.6-13.1c-4.2-2.2-7.9-4.9-11-8.5c-1.9-2-2.9-4.4-3-7.3c-0.3-6.7,2.6-12.1,6.5-17.1
		c3.4-4.6,7.6-8.5,11.8-12.3c3.6-3.4,7.5-6.3,11.2-9.5c4-3.3,7.7-6.7,11.3-10.5c3.7-3.9,7.2-8,9.9-12.8c1.9-3,3.2-6.5,3.2-10
		c0-0.9,0.4-1.7,0.4-2.6c-0.1-0.7,0.6-0.6,1-0.6c6.2,0.1,12.3-0.4,18.5,0.4c6.3,0.9,13.3,7.7,14.5,14.2c0.4,2.3,0.6,4.4,0.6,6.7
		C194.5,42.5,194.5,57.7,194.5,72.9L194.5,72.9z"/>
	<path class="st1" d="M59.8,180.4c2.2-1.6,4.4-2.6,6.2-4.4c3-3.3,4.4-7.3,5-11.8c0.7-5.3,1-10.8,1.9-16.2c1.1-6.6,2.6-13.1,5.5-19.2
		c1.3-2.7,2.9-5.2,5.2-7.2c2.2-1.7,4.6-1.1,6.9-0.6c5.5,1.3,10.5,3.7,15.6,5.9c14.6,6.2,28.8,13.5,43.5,19.5
		c10.6,4.4,21.5,8.3,32.9,11c3.4,0.9,7,1.1,10.6,1.1c1.1,0,1.4,0.3,1.4,1.4c0.3,10-5.7,17.8-15.6,20.2c-1.1,0.3-2.4,0.1-3.6,0.1
		c-38,0-76,0-114.1,0C60.8,180.4,60.4,180.4,59.8,180.4z"/>
	<path class="st2" d="M106.2,6.1c-11.5,12.5-20.2,26.3-28,40.7c-5,9.5-9.5,19.2-13.5,29.3c-0.6,1.6-1.4,3-2.2,4.4
		c-1.6,2.7-3.7,2.7-5.2,0c-1.6-3.2-2.9-6.5-3.9-9.9c-1.3-4.4-2.6-8.9-3.9-13.3c-1.7-6.3-3.4-12.6-5.6-18.8
		c-1.7-4.7-4.2-8.9-7.2-12.8c-1.7-2.3-3.7-4.2-6.3-5.6c-2.4-1.3-5-1.4-7.7-1.3c-1.6,0-1.7-0.6-1.1-1.7c3.3-6.9,8.8-10.9,16.5-11
		c22.4-0.1,44.8,0,67,0C105.5,6.1,105.6,6.1,106.2,6.1z"/>
	<path class="st3" d="M46.5,180.4c-4.9-0.1-9.6,0.6-14.3-1.1c-6-2.3-11.6-9.2-11.9-15.6c-0.1-2.6-0.1-5-0.1-7.6
		c0-26.4,0-52.8,0-79.6c1.6,4,2.4,7.7,3.3,11.5c2.9,10.6,5.5,21.4,7.9,32.1c2,9.2,4,18.5,5.7,27.8c1.6,8.2,2.7,16.4,4.2,24.4
		c0.6,3.2,1.7,6.2,5,7.7C46.4,180.1,46.5,180.2,46.5,180.4z"/>
</g>
<g>
	<g>
		<path class="st1" d="M325.7,77.2c-1.4-5.6-2.6-11.1-3.9-16.4c-1.1-4.3-2.3-8.4-3.3-12.7c-0.4-1.5-0.4-3.1-0.2-4.6
			c0.3-2.3,1.8-4.1,4-4.9c2.8-1.1,5.7-1.9,8.6-2.7c2.4-0.6,5.3,1,6.4,3.6c1,2.2,1.6,4.6,2.1,6.9c2,8.2,4,16.2,5.9,24.4
			c1,4.1,2.6,5,6.4,2.8c7.1-4,14.1-8,21.1-12.2c5.6-3.4,11-7.3,15.7-11.9c1.9-1.9,3.8-4.1,5.4-6.3c1.5-1.9,1.9-4.2,1.6-6.6
			c-0.4-2.6-1.9-4.4-4.4-5.3c-3.3-1.4-6.7-1.4-10.2-1.3c-10.3,0.4-19.8,3.7-29.3,7.4c-1.5,0.6-3.1,0.9-4.8,1.1
			c-2.1,0.2-3.9-0.9-5-2.6c-1.7-2.5-2.4-5.4-2-8.4c0.3-2.5,1.9-4.2,4.2-5.1c2.7-1.2,5.5-2.2,8.4-3.2c7.1-2.4,14.3-4.5,21.7-5.5
			c8.4-1.2,16.9-1.8,25.3,0.4c6.3,1.7,11.4,5.1,14.4,11.1c1.6,3.1,2,6.4,2.2,9.8c0,0.8,0,1.7,0,2.7c0.3-0.3,0.4-0.5,0.5-0.6
			c2.2-4.2,5.9-6.3,10.5-6.8c2.1-0.3,4.4-0.1,6.6,0c0.9,0,1.9,0.3,2.6,0.8c2.9,2,6,1.7,9.2,1.2c14.4-2.3,28.7-4.7,43.1-7.2
			c7.9-1.4,15.7-3.2,23.5-4.9c0.4-0.1,0.9-0.3,1.1-0.6c3.7-5.1,8.9-8.3,14.7-10.8c10.2-4.5,20.9-6.2,32-5.3c3.3,0.2,6.5,0.7,9.8,1.3
			c1.2,0.2,2.3,0.8,3.5,1.3c2.8,1.4,3.9,3.4,3,6.4c-0.7,2.5-1.8,5-3.1,7.2c-1.6,2.8-4.3,3.8-7.4,3.5c-4.1-0.4-8.1-1.2-12.1-1.6
			c-4.8-0.5-9.4-0.5-14.1,0.9c-1.3,0.4-2.4,1.1-3.5,1.8c-1.7,1.4-2,3.6-0.8,5.3c0.7,1,1.6,1.9,2.5,2.6c4.6,3.1,9.1,6.3,13.9,9.2
			c9.5,5.8,19,11.6,27.8,18.5c6,4.8,11.6,10.1,15.2,16.9c5,9.3,5.1,18.5-0.9,27.5c-3.2,4.8-7.7,8.1-12.8,10.5
			c-7.2,3.4-14.8,4.6-22.6,3.8c-10-1-19.1-4.3-27.5-9.7c-0.5-0.3-0.9-0.6-1.5-0.1c-6.2,4.4-13.3,6.6-20.6,8.2
			c-9,1.9-18.1,2.7-27.3,2.5c-10-0.2-20-1.1-29.6-4.2c-6.9-2.2-13.2-5.5-18.5-10.7c-3.7-3.5-6.5-7.7-8.6-12.1
			c-0.2-0.4-0.3-0.7-0.5-1.1c-1.2-2.3-1.9-2.8-4.6-2.4c-1.4,0.2-2.8,0.5-4.2,0.2c-3.2-0.6-5.4-3.6-5.7-7.3c-0.2-3.9,1.6-6.7,4.8-8.7
			c1-0.6,1.9-1.1,3-1.6c1.1-0.6,1.7-1.5,1.7-2.6c-0.2-4.9-0.3-9.7-0.6-14.6c-0.1-1.1-0.6-2.2-1.1-3.2c-1.5-2.5-2.6-5-2.3-8.1
			c-0.1-0.1-0.2-0.2-0.3-0.2c0,0.2-0.1,0.3-0.1,0.5c-2.8,7.5-7.9,13.1-13.8,18.2c-7,6-14.8,10.8-22.8,15.1c-1,0.5-1.8,1.2-2.6,1.9
			c-1.4,1.4-1.2,3,0.3,4.1c0.8,0.6,1.7,1.1,2.7,1.4c9.5,3.1,19,6,28.6,9.1c5,1.6,9.9,3.2,14.8,5c5.6,1.9,6.9,5.8,3.8,11
			c-0.9,1.4-1.8,2.7-2.8,4c-2.7,3.2-6.2,3.9-10.6,2.3c-13.1-4.7-26.2-9.4-39.4-14c-6-2.1-12.1-3.9-18.3-5.8
			c-0.8-0.2-1.6-0.4-2.2-0.4c-1.6-0.1-2.1,0.5-1.9,1.9c0.3,2.1,0.7,4.3,1.1,6.4c0.6,3.8,1.3,7.7,1.7,11.5c0.5,4-1.3,7-5,8.4
			c-2.2,0.9-4.6,1.7-6.9,2.1c-4.8,1.1-7.7-1.2-8.4-6c-1-6.7-2-13.4-3.1-20.1c-0.1-0.6-0.1-1.2-1.1-1.4c-10.9-2.2-21.3-5.9-31.6-9.8
			c-7.9-3-15.9-5.7-23.9-8.5c-0.8-0.3-1.7-0.4-2.5-0.6c-2.5-0.5-4.4,0.6-5.8,2.5c-2,2.6-3.3,5.6-4,8.8c-0.8,3.7-1.3,7.5-1.8,11.3
			c-0.8,4.9-3.8,8.1-8.7,8.7c-1.5,0.2-2.9,0.3-4.4,0.3c-3.3-0.1-5.3-1.9-5.9-5.1c-3.1-17.2-7.8-33.9-13.4-50.4
			c-2.1-6.1-4.7-12.1-6.9-18.3c-0.5-1.4-0.8-2.9-1-4.4c-0.3-1.8,0.7-3.2,1.9-4.4c3.5-3,11.9-3.6,15.8,0.4c3.2,3.2,5.3,7,6.8,11.3
			c1.7,4.8,3.2,9.4,5,14.2c0.5,1.5,1.3,2.8,2.1,4.2c1,1.6,2.2,1.6,3.2-0.1c1.3-2.1,2.4-4.5,3.6-6.7c5.5-10.4,11.9-20.2,20.2-28.6
			c5.4-5.5,11.4-10.3,18.7-12.9c3.2-1.2,6.5-1.8,9.8-1.2c8.6,1.6,12,11,6.6,18.1c-3.4,4.5-7.9,7.8-12.3,11.1
			c-4.4,3.2-8.7,6.4-13,9.8c-1.5,1.2-2.7,2.6-3.8,4.1c-0.9,1.2-1.6,2.6-2.1,4c-1.1,2.8-0.3,5.3,2.1,7.1c2.2,1.6,4.6,3.1,7.1,4.2
			c8,3.6,16.3,5.9,24.7,8.2c2.9,0.8,5.7,1.5,8.6,2.2C324.6,77,325,77.1,325.7,77.2z M488.3,101.1c5.3-0.4,10.8-0.6,16.1-1.1
			c2.8-0.3,5.5-1.1,8.3-1.9c2.2-0.7,2.6-2.1,1.5-4.1c-1-1.7-1.1-3.3-0.5-5.1c0.2-0.5,0.1-1.1,0-1.6c-1.6-4.2-1.9-8.5-1.7-12.9
			c0.2-2.4,0.5-4.9,1.6-7.1c1.5-2.9,3.8-4.5,7.1-4c2.2,0.3,4.4,0.9,6.5,1.7c3.5,1.5,5.6,3.9,5.4,8c-0.1,3.1,0.8,6.1,2.2,8.9
			c6.6,13,21.8,19,34.1,18.2c2.1-0.2,4.3-0.7,6.2-1.8c2.1-1.4,3.4-3.3,3.3-6c-0.2-3.4-1.7-6.2-3.7-8.8c-4.3-5.3-9.5-9.6-15.1-13.3
			c-8.7-5.7-17.7-11.4-26.4-17c-6.7-4.4-13.3-8.9-18.5-15.1c-0.2-0.3-0.8-0.3-1.2-0.3c-6.1,1.4-12.1,2.9-18.3,4
			c-10.9,1.9-21.8,3.8-32.8,5.4c-6.9,1.1-13.8,1.8-20.6,2.8c-1.7,0.2-2.6,1.1-2.6,2.7c-0.1,2.7-0.1,5.4,0.1,8.2
			c0.1,1.7,0.6,3.5,1.2,5.1c0.3,1.2,1.3,1.7,2.4,1.5c1.8-0.3,3.8-0.4,5.6-0.8c11.4-2.6,22.8-5.3,34.2-7.9c7-1.6,13.9-3,20.9-4.5
			c2.5-0.5,4.6,0.6,5.6,2.9c0.7,1.5,1.1,3.1,1.4,4.8c0.7,3.6-1.1,7.1-4.3,8.6c-1.7,0.8-3.5,1.5-5.3,1.8
			c-15.3,3.6-30.6,7.2-45.9,10.8c-2.4,0.6-4.9,1.2-7.2,1.8c-1.4,0.4-1.7,1.1-1.2,2.4c0.5,1.1,1.2,2.2,2,3c2.8,2.7,6.3,4.3,9.8,5.5
			C468,99.6,478,101.1,488.3,101.1z"/>
		<path class="st1" d="M613,40c0-1.7,0-3.6,0-5.3c-0.1-3.1-1.7-4.8-4.7-4.4c-5,0.7-9.9,1.6-14.8,2.4c-4.1,0.7-8.2,1.4-12.2,2
			c-0.9,0.1-1.8,0.1-2.8-0.1c-2-0.4-3.6-1.5-4.1-3.5c-1.1-3.8-0.7-7.4,1.5-10.8c1.6-2.4,4-3.3,6.8-3.8c15.5-2.6,31-5.2,46.5-8
			c5.2-1,10.4-2.5,15.5-3.7c5.5-1.3,11.1-2.1,16.8-2.4c3.7-0.2,6.2,1.9,6.8,5.6c0.3,2.4,0.2,4.9-0.5,7.1c-0.8,2.8-2.7,4.5-5.6,5
			c-6.9,1.2-13.8,2.4-20.7,3.7c-1.1,0.2-2.1,0.6-3.1,0.8c-2.7,0.7-4.4,2.5-4.6,5.2c-0.3,4-0.5,8.1-0.3,12c0.3,7,0.9,14,1.5,21
			c0.6,6.8,1.4,13.6,2.2,20.3c1.1,8.4,2.3,17,3.5,25.4c0.2,1.1,0.4,2.2,0.5,3.3c0.2,3.7-1.5,6.3-4.8,7.7c-2.6,1.1-5.3,1.8-8.1,2.4
			c-3.4,0.7-5.9-1-6.9-4.4c-0.7-2.5-1.1-5.1-1.5-7.8c-1.1-6.9-2-13.8-3-20.7c-0.9-6.4-1.7-12.8-2.1-19.3
			C614.2,59.9,613.6,49.9,613,40C612.9,40,613,40,613,40z"/>
	</g>
	<g>
		<g class="st4">
			<path class="st5" d="M286,181l-0.5-1.3c2.4-0.3,3.9-0.8,4.4-1.5c0.4-0.5,0.7-3.1,0.9-7.6c0.2-4.5,0.3-8.4,0.3-11.6l0.1-11.3
				c0-3.1-0.1-5.3-0.3-6.6c-0.2-1.3-0.7-2.2-1.3-2.7c-0.7-0.4-1.8-0.7-3.2-0.7l0.1-1.1c1.3-0.2,2.5-0.3,3.4-0.3c0.3,0,1.5,0,3.6,0.1
				c1.5,0.1,2.8,0.2,3.7,0.2l5-0.1c0,0.4,0,0.8,0.1,1.2l-1.8,0.3c-1.1,0.2-1.9,0.4-2.3,0.6c-0.4,0.2-0.7,0.7-0.9,1.4
				c-0.2,0.7-0.4,2.1-0.6,4.3c-0.2,2-0.3,4.5-0.3,7.3c0,2.3,0,4.1,0.1,5.5h16.1c6.2,0,10,0,11.4,0c1.5,0,2.5-0.1,3.2-0.2l0.1-7.2
				c0-3.9,0-6.4-0.1-7.3c-0.1-1-0.2-1.8-0.5-2.3c-0.3-0.7-0.7-1.2-1.2-1.5c-0.6-0.3-1.8-0.6-3.6-1l0.2-1.3c1,0.1,2.1,0.3,3.1,0.4
				c1.3,0.1,2.8,0.2,4.5,0.2c0.4,0,1.6,0,3.6-0.1c2-0.1,3.2-0.1,3.4-0.1l0.1,1c-0.3,0.1-0.5,0.2-0.6,0.2c-0.9,0.2-1.6,0.5-2.1,0.9
				c-0.5,0.4-0.8,0.9-1,1.7c-0.2,0.8-0.4,1.7-0.4,2.7c-0.1,1-0.1,3.4-0.2,7.3l-0.3,15.7c-0.1,4.3-0.1,7.4,0.2,9.3
				c0.2,1.9,0.6,3.1,1.3,3.7c0.6,0.6,1.8,0.9,3.4,1.1l-0.1,1c-0.9-0.2-2-0.3-3.3-0.4c-0.7,0-1.7-0.1-2.9-0.1c-0.4,0-1.8,0-4.1,0.1
				c-1.8,0.1-3.3,0.2-4.3,0.2l-0.1-1.2c1.5-0.2,2.6-0.5,3.3-0.9c0.6-0.4,1.1-1.1,1.3-2.1c0.2-1,0.3-2.6,0.4-5l0.2-7.7l-0.1-4.5
				l-3.8-0.2l-19.5-0.1l-7.4,0.1c-0.1,2.7-0.2,6.6-0.2,11.9c0,3.3,0.1,5.3,0.4,6.1c0.1,0.4,0.3,0.8,0.6,1.1c0.3,0.3,0.8,0.6,1.4,0.8
				c0.7,0.2,1.7,0.5,3,0.8l-0.1,1.1c-0.5,0-1.3-0.1-2.5-0.2c-1.2-0.1-2.4-0.2-3.5-0.2c-1.1-0.1-2.1-0.1-3-0.1
				C290.9,180.7,288.8,180.8,286,181z"/>
			<path class="st5" d="M341.3,158.6c0-4.1,1.1-8,3.3-11.5c2.2-3.5,5.1-6.3,8.8-8.3c3.6-2,7.5-3.1,11.6-3.1c2.8,0,5.5,0.5,8.2,1.6
				c2.7,1.1,5.1,2.6,7.3,4.6c2.1,2,3.8,4.4,5.1,7.2c1.3,2.8,1.9,5.9,1.9,9.3c0,4.1-1,7.9-3,11.4c-2,3.5-4.8,6.4-8.4,8.4
				c-3.6,2.1-7.7,3.1-12.2,3.1c-3.5,0-6.6-0.7-9.4-2c-2.8-1.4-5.2-3.2-7.2-5.5c-2-2.3-3.4-4.8-4.4-7.5
				C341.8,163.8,341.3,161.2,341.3,158.6z M346.4,156c0,4,0.9,7.7,2.8,11.3c1.9,3.6,4.4,6.4,7.5,8.5s6.5,3.2,10,3.2
				c2.6,0,5.1-0.6,7.5-1.9c2.4-1.3,4.3-3.3,5.9-6c1.5-2.7,2.3-6,2.3-9.9c0-3.1-0.5-6.1-1.5-8.9c-1-2.8-2.4-5.3-4.2-7.4
				c-1.8-2.1-3.9-3.8-6.3-5c-2.4-1.2-4.9-1.8-7.5-1.8c-2.9,0-5.6,0.7-8.1,2.1c-2.5,1.4-4.5,3.5-6,6.2
				C347.1,149.2,346.4,152.4,346.4,156z"/>
			<path class="st5" d="M393.4,137.9v-1.2c2.9,0,4.7,0,5.6,0.1c0.9,0,1.6,0,2.2,0.1c3.8,0,6.3,0,7.5-0.1l-0.1,1.3
				c-1.6,0.1-2.7,0.3-3.5,0.6c-0.8,0.2-1.3,0.7-1.7,1.5c-0.2,0.5-0.4,1.8-0.4,3.8c-0.1,2-0.2,4.6-0.2,7.7c-0.1,3.5-0.2,6.7-0.2,9.6
				c0,2.9-0.1,5.7-0.1,8.5c0,2.6,0.1,4.5,0.2,5.7c0.1,1.2,0.4,2,0.7,2.3c0.4,0.3,1,0.5,1.9,0.6c0.9,0.1,2.8,0.2,5.8,0.2
				c3.2,0,5.9-0.3,8.1-0.8c2.2-0.5,3.8-1.1,4.9-1.7c1.5-0.9,2.5-2.4,3-4.5l1.1,0.1c-0.1,0.9-0.4,2.3-0.9,4.2s-1,3.6-1.7,5.1
				c-2-0.2-3.5-0.3-4.7-0.3c-0.7,0-1.4,0-2-0.1c-0.6,0-1.3,0-2.1,0h-24l-0.1-1.1c1.3-0.3,2.3-0.6,2.9-0.9c0.6-0.3,1.1-0.9,1.4-1.7
				c0.3-0.8,0.5-2,0.6-3.5c0.1-1.6,0.1-3.8,0.1-6.8l0.1-15c0-3.4,0-6,0-7.7c0-1.8-0.2-3.1-0.5-3.9c-0.3-0.9-0.7-1.4-1.3-1.7
				C395.7,138.1,394.7,138,393.4,137.9z"/>
			<path class="st5" d="M431.3,138.4l-0.1-1.3c6.1,0,11.2-0.3,15.4-0.8c1.5-0.2,3.2-0.3,4.8-0.3c3.4,0,6.6,0.5,9.7,1.5
				c3.1,1,5.8,2.5,8.3,4.4c2.4,1.9,4.3,4.2,5.7,7c1.4,2.7,2.1,5.8,2.1,9.2c0,4.1-1.1,7.9-3.2,11.3c-2.1,3.4-5.2,6.1-9.1,8.1
				c-3.9,2-8.4,3-13.5,3c-0.3,0-1.2,0-2.7-0.1c-1.5,0-2.4-0.1-2.6-0.1c-0.9,0-1.7,0-2.4,0c-0.7,0-1.7,0-3,0.1
				c-1.3,0-2.6,0.1-3.8,0.1c-1.2,0-2.1,0.1-2.5,0.1l-3.3-0.1v-1.3c2.4,0,3.9-0.5,4.4-1.6c0.6-1.2,0.9-6.9,0.9-17
				c0-6.7-0.1-11.7-0.2-14.9c-0.2-3.3-0.5-5.3-1-6.1C434.4,138.7,433.2,138.3,431.3,138.4z M471.2,158.2c0-4.3-1-8-3.1-11.1
				c-2-3.1-4.7-5.5-7.9-7c-3.2-1.6-6.5-2.4-9.8-2.4c-3.3,0-6.2,0.6-8.9,1.8c-0.2,1.3-0.4,5.1-0.5,11.4c-0.1,6.3-0.2,11.8-0.2,16.4
				c0,0.2,0,1,0.1,2.6s0.1,3.1,0.1,4.6c0,1.6,0.1,2.5,0.1,2.7c2.3,0.7,4.1,1.2,5.3,1.5c1.2,0.3,2.8,0.4,4.6,0.4
				c4.7,0,8.6-1,11.6-3.1c3-2,5.2-4.6,6.5-7.8C470.5,164.9,471.2,161.6,471.2,158.2z"/>
			<path class="st5" d="M481.2,137.9v-1.5c2.6,0.1,4.2,0.2,4.8,0.3c2.3,0.1,3.9,0.1,4.7,0.1c0.3,0,1.5,0,3.6-0.1
				c2.1-0.1,4.1-0.2,5.9-0.3v1.6c-2,0-3.4,0.1-4.1,0.3c-0.7,0.2-1.3,0.6-1.6,1.3c-0.8,1.4-1.1,6.9-1.1,16.4c0,6.6,0,10.7,0,12.5
				c0,1.7,0.1,3.6,0.1,5.6c0,1.6,0.2,2.7,0.4,3.4c0.2,0.7,0.8,1.2,1.7,1.5c0.9,0.3,2.4,0.5,4.4,0.5l-0.1,1.3c-0.3,0-1,0-1.9-0.1
				c-0.9,0-1.9-0.1-2.9-0.1c-1,0-1.8,0-2.3-0.1c-0.5,0-1.2,0-1.9,0c-1,0-1.8,0-2.5,0c-0.7,0-1.6,0-2.7,0.1c-1.1,0-2.1,0.1-3,0.1
				c-0.9,0-1.4,0.1-1.6,0.1l-0.1-1.3c2.5-0.1,4.1-0.4,5-0.9c0.9-0.4,1.5-1.1,1.8-2.1c0.5-1.2,0.7-3.6,0.9-7c0.1-3.4,0.2-7,0.2-10.8
				c0-3.4-0.1-8.4-0.3-14.8c-0.1-1.8-0.2-3-0.5-3.8c-0.3-0.8-0.9-1.3-1.9-1.7C484.8,138.1,483.3,137.9,481.2,137.9z"/>
			<path class="st5" d="M502.8,137.8v-1.4c2,0.1,3.4,0.2,3.9,0.3c0.6,0,1.2,0,2,0l2.9-0.1c1.4,1.7,3,3.6,4.8,5.5s3.9,4,6.2,6.2
				c2.3,2.2,3.6,3.5,3.9,3.8l20.1,19.1c0.2-2.8,0.3-7.2,0.3-12.9v-6.6c0-3.5-0.1-6.1-0.3-7.9s-0.5-3.1-1-3.9s-1.1-1.4-1.9-1.7
				c-0.8-0.3-2.1-0.6-3.9-0.9l0.4-1c0.3,0,0.9-0.1,1.7-0.1c0.7,0,1.4,0,2.1,0c0.7,0,1.5,0.1,2.5,0.2c0.6,0,1.2,0.1,1.8,0.1
				c0.6,0,1.1,0,1.5,0l4.3-0.1l0.1,1.2c-1.4,0.2-2.3,0.5-2.9,1c-0.6,0.4-1,1.1-1.3,2.2c-0.4,1.9-0.7,5.5-0.9,11
				c-0.2,5.4-0.3,10.6-0.3,15.5c0,1.9,0,3.8,0.1,5.6s0.1,3.4,0.1,4.8c0,1.4,0.1,2.7,0.2,3.9l-1.4-0.1c-1.6-3.4-6.3-8.8-14.2-16.1
				L521,153.4c-0.4-0.3-1.5-1.3-3.2-2.8c-1.7-1.6-3.8-3.5-6.3-5.9l-0.4,20.9c-0.1,4.3,0,7.3,0.3,9c0.3,1.7,0.9,2.9,1.9,3.4
				c1,0.6,2.9,1.1,5.7,1.7c0,0.5,0,0.9-0.1,1.3c-0.4,0-1.5,0-3.3-0.1c-1.9-0.1-3-0.1-3.4-0.1c-0.4,0-1.6,0-3.8,0.1
				c-0.4,0-0.9,0.1-1.5,0.1s-1.4,0.1-2.4,0.2c-0.3,0-0.6-0.1-0.7-0.2c-0.1-0.1-0.2-0.3-0.2-0.6c0-0.3,0.1-0.5,0.2-0.6
				c0.1-0.1,0.4-0.1,0.8-0.2c1-0.1,1.7-0.3,2.2-0.5s0.8-0.7,1.1-1.4c0.3-0.7,0.5-1.8,0.6-3.4c0.1-1.5,0.2-3.5,0.2-5.9l0.2-16.3
				c0-3.6,0-6.2-0.2-8c-0.2-1.7-0.7-3.1-1.5-4.2C506.3,138.7,504.9,138,502.8,137.8z"/>
			<path class="st5" d="M602,159v1.3c-0.9,0.3-1.5,0.5-1.7,0.7c-0.2,0.1-0.4,0.5-0.6,0.9c-0.1,0.3-0.2,0.7-0.2,1.2
				c0,0.5-0.1,1.2-0.1,2.2c0,1,0,2.9,0,5.6c0,2,0,3.5,0.1,4.3c0.1,0.9,0.2,1.5,0.4,1.8c0.2,0.3,0.5,0.7,1,1.1l-0.3,0.8
				c-0.4,0-1.9,0.3-4.7,0.9c-1.9,0.3-3.7,0.6-5.4,0.8c-1.7,0.2-3.1,0.4-4.1,0.4c-1,0.1-2.2,0.1-3.6,0.1c-4.2,0-7.9-0.6-11-1.9
				s-5.7-3.1-7.7-5.3s-3.5-4.6-4.4-7.2c-0.9-2.6-1.4-5.2-1.4-7.9c0-3.5,0.7-6.7,2.1-9.5c1.4-2.9,3.4-5.3,5.8-7.3
				c2.5-2,5.3-3.4,8.4-4.4s6.3-1.5,9.6-1.5c1.3,0,2.5,0.1,3.6,0.2c1.1,0.2,2.2,0.3,3,0.5c0.9,0.2,1.4,0.3,1.7,0.4
				c1,0.4,1.6,0.6,1.9,0.6c1.2-1,1.9-1.5,2.1-1.5c0.3,0,0.5,0.4,0.5,1.3c0,0.7,0.2,2.1,0.5,4.2c0.3,2.2,0.5,3.6,0.5,4.4
				c0,0.3-0.1,0.5-0.4,0.5c-0.2,0-0.3,0-0.4-0.1s-0.2-0.3-0.3-0.7c-0.8-2-2.4-3.8-4.7-5.5c-2.3-1.7-5.5-2.6-9.4-2.6
				c-3.8,0-7.1,1-10,2.9c-2.9,1.9-5.1,4.4-6.7,7.5s-2.3,6.3-2.3,9.6c0,2.3,0.4,4.8,1.3,7.2s2.2,4.8,4,7c1.8,2.2,4,3.9,6.5,5.2
				c2.6,1.3,5.4,1.9,8.4,1.9c2.6,0,4.8-0.4,6.6-1.1c1.8-0.7,3-1.4,3.5-2.1c0.3-0.3,0.4-0.8,0.5-1.5s0.1-2.4,0.1-5.3
				c0-2.8-0.1-4.7-0.3-5.8s-0.7-1.8-1.6-2.2c-0.8-0.4-2.3-0.5-4.4-0.5c-0.9,0-1.6,0-2.2,0.1l0.1-1.5c3.1,0,6.1-0.1,8.8-0.1
				S600.1,159.1,602,159z"/>
		</g>
	</g>
</g>
</svg>
