<svg width="156" height="32" viewBox="0 0 156 32" fill="none" xmlns="http://www.w3.org/2000/svg">
<path d="M155.693 7.04567C155.52 6.99987 155.377 7.06399 155.275 7.16475C155.163 7.2746 155.061 7.412 154.969 7.53101C152.503 10.8094 150.251 14.1977 148.233 17.7142C148.203 17.7783 148.162 17.8424 148.091 17.9432C148.08 17.8424 148.071 17.7966 148.071 17.7508C148.01 17.2472 147.734 16.9725 147.174 16.8809C146.735 16.8076 146.308 16.8992 145.91 17.0548C144.677 17.531 143.76 18.3278 143.098 19.3717C143.047 19.4542 142.996 19.5457 142.935 19.619C142.639 19.9578 142.333 20.2966 142.028 20.6263C141.559 21.1117 141.05 21.5421 140.448 21.8901C140.245 22.0091 140.021 22.1098 139.807 22.1922C139.684 22.238 139.541 22.2655 139.409 22.2747C139.114 22.293 138.92 22.1282 138.961 21.8626C138.981 21.6977 139.022 21.5329 139.083 21.3681C139.307 20.6904 139.623 20.0494 139.939 19.4084C140.061 19.1611 140.224 18.9505 140.428 18.7581C142.222 17.0732 143.924 15.3241 145.543 13.5018C146.389 12.5494 147.194 11.5787 147.877 10.5255C148.233 9.98524 148.549 9.43577 148.753 8.84057C148.896 8.41927 148.987 7.98888 148.886 7.54018C148.804 7.16475 148.57 6.89917 148.02 6.95407C147.693 6.98155 147.408 7.10063 147.133 7.24712C146.675 7.49437 146.277 7.80575 145.91 8.15376C145.422 8.62079 145.003 9.13362 144.636 9.67386C143.729 11.0109 142.823 12.3479 141.946 13.7032C140.795 15.4981 139.776 17.3571 138.981 19.3076C138.951 19.3717 138.92 19.445 138.869 19.4999C138.135 20.2508 137.402 20.9926 136.668 21.7343C136.505 21.8992 136.291 22.0182 136.057 22.0915C135.965 22.119 135.873 22.1465 135.772 22.1465C135.526 22.1556 135.405 22.0182 135.456 21.8076C135.475 21.6977 135.526 21.597 135.577 21.4963C135.71 21.2582 135.843 21.0109 135.995 20.7728C136.607 19.8021 137.219 18.8406 137.829 17.879C137.922 17.7417 138.003 17.5952 138.064 17.4487C138.156 17.2472 138.095 17.064 137.911 16.945C137.718 16.8167 137.463 16.8167 137.279 16.9633C137.188 17.0365 137.117 17.1281 137.055 17.2197C136.872 17.467 136.719 17.7142 136.525 17.9523C135.445 19.271 134.243 20.5164 132.979 21.6977C132.826 21.8351 132.643 21.9541 132.46 22.0549C132.337 22.119 132.184 22.1556 132.042 22.1648C131.808 22.1831 131.685 22.0549 131.746 21.8534C131.797 21.6611 131.878 21.4779 131.98 21.304C132.205 20.9377 132.439 20.5805 132.684 20.2233C133.051 19.6923 133.448 19.1794 133.815 18.6574C134.07 18.282 134.314 17.9065 134.549 17.5219C134.671 17.3296 134.599 17.1098 134.416 16.9633C134.232 16.8167 133.988 16.8076 133.784 16.945C133.662 17.0365 133.55 17.1464 133.458 17.2655C133.03 17.8882 132.613 18.52 132.184 19.1428C131.583 20.0311 130.86 20.8278 130.055 21.5695C129.902 21.7069 129.728 21.8351 129.545 21.945C129.392 22.0366 129.219 22.119 129.046 22.174C128.903 22.2197 128.74 22.238 128.587 22.2289C128.271 22.2105 128.109 21.9999 128.169 21.7252C128.19 21.6337 128.22 21.5421 128.251 21.4505C128.475 20.8644 128.812 20.3333 129.178 19.8113C129.607 19.2161 130.034 18.6208 130.463 18.0164C130.584 17.8424 130.697 17.6501 130.809 17.467C130.901 17.3021 130.85 17.1556 130.717 17.0182C130.503 16.7984 130.157 16.7709 129.912 16.9633C129.82 17.0365 129.739 17.1373 129.668 17.238C129.413 17.5677 129.169 17.9065 128.923 18.2453C128.893 18.2911 128.842 18.3369 128.842 18.3736C128.852 18.5017 128.761 18.5933 128.7 18.6941C128.475 19.0695 128.241 19.4358 128.027 19.8113C127.782 20.2325 127.548 20.663 127.436 21.13C127.374 21.3772 127.323 21.6337 127.323 21.8901C127.323 22.3663 127.64 22.6227 128.169 22.641C128.475 22.6502 128.75 22.586 129.025 22.4761C129.423 22.3113 129.77 22.0824 130.065 21.7985C130.432 21.4505 130.788 21.0842 131.145 20.7179C131.186 20.6721 131.237 20.6263 131.277 20.5805C131.277 20.6538 131.247 20.7179 131.226 20.7728C131.135 21.0109 131.022 21.2398 130.962 21.4779C130.911 21.6703 130.88 21.8717 130.901 22.064C130.92 22.4486 131.277 22.6776 131.706 22.6044C132.001 22.5586 132.276 22.4578 132.5 22.293C132.766 22.1007 133.03 21.9084 133.265 21.6794C134.253 20.7362 135.17 19.7288 136.077 18.7216C136.128 18.6666 136.179 18.6116 136.23 18.5567C136.21 18.6758 136.159 18.7673 136.108 18.8681C135.659 19.7106 135.211 20.5622 134.763 21.4047C134.671 21.5879 134.63 21.7801 134.64 21.9816C134.65 22.4212 134.976 22.6684 135.456 22.6135C135.7 22.586 135.934 22.5128 136.128 22.3663C136.413 22.1465 136.709 21.9358 136.964 21.6885C137.493 21.1758 138.003 20.6355 138.513 20.1043C138.564 20.0494 138.624 19.9944 138.675 19.9395C138.634 20.2325 138.553 20.5072 138.492 20.7911C138.411 21.1758 138.329 21.5695 138.411 21.9633C138.502 22.4029 138.879 22.6684 139.378 22.5952C139.603 22.5586 139.837 22.4853 140.041 22.3846C140.275 22.2747 140.479 22.1373 140.693 21.9999C141.396 21.5237 141.977 20.9469 142.527 20.3333C142.578 20.2691 142.639 20.2142 142.731 20.1227C142.721 20.2051 142.731 20.2417 142.721 20.2691C142.68 20.4523 142.629 20.6263 142.609 20.8095C142.558 21.194 142.578 21.5879 142.751 21.9541C142.975 22.4212 143.424 22.6593 143.984 22.586C144.178 22.5585 144.382 22.5128 144.575 22.4395C144.963 22.3021 145.309 22.0824 145.605 21.8168C145.89 21.5512 146.155 21.2582 146.43 20.9743C146.471 20.9377 146.512 20.9011 146.573 20.8278C146.522 21.0933 146.461 21.3131 146.43 21.5329C146.379 21.8168 146.399 22.1007 146.573 22.3571C146.726 22.5769 146.929 22.6593 147.194 22.5677C147.408 22.4944 147.623 22.3937 147.806 22.2655C148.08 22.064 148.346 21.8443 148.58 21.597C149.293 20.8736 149.986 20.141 150.689 19.3992C150.975 19.0878 151.25 18.7673 151.525 18.456C151.576 18.401 151.668 18.3461 151.607 18.2545C151.474 18.2179 151.443 18.3186 151.392 18.3736C150.567 19.3259 149.691 20.2417 148.794 21.1391C148.59 21.3406 148.356 21.5054 148.122 21.6794C148.02 21.7527 147.908 21.8076 147.785 21.8626C147.674 21.9084 147.551 21.9541 147.439 21.8809C147.317 21.8076 147.306 21.6795 147.337 21.5604C147.377 21.4047 147.419 21.249 147.49 21.1025C147.908 20.2875 148.295 19.4542 148.764 18.6574C150.903 14.9853 153.186 11.3955 155.693 7.91567C155.775 7.80575 155.866 7.69583 155.927 7.57682C155.968 7.49438 156.009 7.39368 155.998 7.31124C155.978 7.20132 155.876 7.09147 155.693 7.04567ZM141.488 16.6336C142.548 14.7655 143.627 12.8973 144.83 11.1025C145.554 10.0127 146.318 8.95958 147.174 7.95224C147.337 7.75995 147.551 7.59513 147.755 7.43025C147.826 7.37536 147.918 7.32956 148.01 7.30208C148.284 7.20132 148.509 7.2746 148.631 7.52186C148.743 7.73247 148.743 7.9614 148.723 8.19034C148.672 8.62079 148.539 9.0237 148.346 9.40829C148.01 10.086 147.561 10.7087 147.113 11.3223C146.053 12.7417 144.871 14.0695 143.627 15.3607C142.68 16.3406 141.702 17.2929 140.744 18.2545C140.673 18.3278 140.612 18.401 140.55 18.4743C140.53 18.456 140.51 18.4377 140.489 18.4194C140.816 17.8241 141.152 17.2289 141.488 16.6336ZM147.724 18.6025C147.398 19.2161 147.072 19.8296 146.695 20.4157C146.359 20.9559 145.921 21.4413 145.36 21.8351C145.044 22.0549 144.718 22.2289 144.321 22.2838C143.678 22.3754 143.281 22.1007 143.373 21.4413C143.424 21.0842 143.567 20.7453 143.72 20.4157C144.168 19.4725 144.769 18.6116 145.574 17.8882C145.839 17.6593 146.125 17.4487 146.461 17.3113C146.675 17.2197 146.899 17.1464 147.164 17.1556C147.551 17.1556 147.775 17.3204 147.867 17.6776C147.948 18.0072 147.877 18.3186 147.724 18.6025Z" fill="#18181B"/>
<path d="M81.5914 18.282C81.5404 18.3278 81.4895 18.3828 81.4385 18.4377C81.1017 18.804 80.7863 19.1887 80.4399 19.5458C79.7471 20.2692 79.0439 20.9743 78.3408 21.6886C78.1473 21.881 77.9124 22.0366 77.648 22.1282C77.5357 22.1648 77.4131 22.2014 77.2912 22.2014C77.0564 22.2014 76.9448 22.0641 77.0261 21.8627C77.1073 21.6611 77.1996 21.4688 77.3112 21.2857C77.597 20.8187 77.8925 20.37 78.1672 19.9029C78.4937 19.3626 78.7995 18.8132 79.0949 18.2637C79.1865 18.0989 79.2375 17.9157 79.2478 17.7325C79.2988 17.1465 78.8807 16.8534 78.3918 16.8534C78.1163 16.8534 77.8614 16.9176 77.6273 17.0549C77.3422 17.2106 77.0667 17.3846 76.8015 17.5677C76.3436 17.8883 75.9765 18.2912 75.6094 18.6941C75.5585 18.749 75.5075 18.804 75.4565 18.859C75.4469 18.7948 75.4669 18.7399 75.4876 18.685C75.5688 18.4743 75.6707 18.2729 75.732 18.0622C75.7933 17.8608 75.8443 17.6502 75.8443 17.4396C75.8443 17.0183 75.5075 16.7985 75.0592 16.8993C74.9373 16.9267 74.8044 16.9725 74.7024 17.0366C74.5089 17.1557 74.3154 17.2838 74.1522 17.4304C73.7962 17.7783 73.449 18.1447 73.113 18.5018C72.6343 19.0055 72.186 19.5183 71.6971 20.0128C70.8816 20.837 69.9953 21.5879 69.0063 22.2381C68.9251 22.293 68.8438 22.3388 68.7515 22.3937C68.7618 22.293 68.7929 22.2289 68.8335 22.1556C69.6386 20.8828 70.4532 19.619 71.2583 18.3461C71.3809 18.1538 71.4829 17.9524 71.5744 17.7509C71.666 17.5403 71.5848 17.3663 71.3706 17.238C71.0958 17.0732 70.759 17.1282 70.5759 17.3754C70.4436 17.5494 70.3417 17.7417 70.2191 17.9249C70.1888 17.9706 70.1578 18.0073 70.1172 18.0439C70.0965 17.9798 70.1068 17.9249 70.1068 17.8791C70.1172 17.3571 69.8727 17.0366 69.3527 16.8993C69.1289 16.8443 68.9044 16.8351 68.6806 16.8626C68.1916 16.9267 67.733 17.0824 67.3046 17.3022C66.388 17.7783 65.6848 18.4469 65.1752 19.2893C65.1242 19.3626 65.0836 19.445 65.0223 19.5183C64.3191 20.2967 63.5857 21.0568 62.8006 21.771C62.6276 21.9267 62.434 22.0366 62.2098 22.1099C62.1079 22.1374 62.006 22.1556 61.9041 22.1556C61.7003 22.1465 61.5882 22.0275 61.629 21.8443C61.6494 21.7344 61.7003 21.6154 61.7513 21.5146C61.9347 21.1849 62.1181 20.8645 62.3219 20.5439C62.8826 19.6557 63.4528 18.7674 64.0237 17.8791C64.1049 17.7509 64.1869 17.6135 64.2475 17.467C64.3398 17.2564 64.2785 17.0641 64.085 16.9451C63.8811 16.8168 63.6367 16.8351 63.4528 16.9817C63.3715 17.0549 63.2999 17.1465 63.229 17.238C62.9025 17.6685 62.6072 18.1172 62.2506 18.5201C61.4558 19.4176 60.6202 20.2875 59.7948 21.1666C59.4687 21.5146 59.0611 21.7894 58.6128 22.0091C58.5414 22.0458 58.4599 22.0733 58.3784 22.1099C58.4701 22.0091 58.5924 21.9267 58.6943 21.8443C59.214 21.4414 59.5299 20.9377 59.6215 20.3242C59.6827 19.9304 59.6215 19.5549 59.5299 19.1703C59.3566 18.5018 59.0305 17.8883 58.6739 17.2838C58.6229 17.2106 58.5822 17.1282 58.5414 17.0641C58.7045 16.8809 58.8573 16.7161 58.9898 16.5421C59.0917 16.3956 59.1936 16.2399 59.2446 16.075C59.326 15.8095 59.1121 15.6172 58.8165 15.6905C58.6943 15.7179 58.572 15.782 58.4904 15.8644C58.3886 15.9835 58.2969 16.1208 58.2459 16.2673C58.1542 16.5238 58.1237 16.7985 58.1644 17.0732C58.1848 17.174 58.1542 17.2564 58.0829 17.3296C57.4817 17.9981 56.8804 18.685 56.2691 19.3443C55.6781 19.9945 55.0259 20.6081 54.3228 21.1666C53.905 21.5055 53.4566 21.8077 52.9471 22.0366C52.6211 22.1831 52.2848 22.2747 51.9179 22.2564C51.3676 22.2381 51.0416 21.9359 51.0416 21.4414C51.0416 20.9377 51.2556 20.489 51.4594 20.0311C51.5715 20.0311 51.653 20.0311 51.7447 20.0311C52.9471 20.022 54.0171 19.6832 54.9545 19.0238C55.2195 18.8315 55.4641 18.6117 55.6271 18.337C56.0042 17.6777 55.6883 17.0641 54.8731 16.8901C54.8629 16.8901 54.8629 16.8901 54.8527 16.8901C54.4552 16.7985 54.0681 16.8534 53.691 16.9634C52.6312 17.2564 51.7957 17.8333 51.1027 18.5842C50.6136 19.1154 50.2672 19.7197 50.1245 20.3974C50.0328 20.837 50.0226 21.2674 50.206 21.6978C50.42 22.2106 50.7971 22.5495 51.4186 22.6319C51.7345 22.6776 52.0504 22.6136 52.3561 22.5311C52.7943 22.4029 53.1917 22.1923 53.5687 21.9633C54.3839 21.4597 55.0972 20.8462 55.729 20.1685C56.5034 19.3352 57.2473 18.4835 58.0013 17.641C58.0523 17.5861 58.0727 17.5128 58.1848 17.4853C58.195 17.5677 58.2051 17.6227 58.2153 17.6868C58.2459 17.9066 58.2765 18.1264 58.2969 18.337C58.3682 18.9231 58.4599 19.5183 58.409 20.1044C58.358 20.7088 58.1644 21.2674 57.7364 21.7436C57.5224 21.9725 57.2677 22.1556 56.962 22.2656C56.8092 22.3205 56.6359 22.3572 56.4627 22.3572C55.9328 22.3572 55.6577 21.9175 55.9226 21.5146C56.0347 21.3407 56.1977 21.2216 56.4015 21.1666C56.7072 21.0842 56.8499 21.1941 56.8092 21.4963C57.1046 21.3865 57.2677 21.1758 57.2677 20.9194C57.2677 20.6264 57.0435 20.4615 56.7378 20.5439C56.5747 20.5897 56.4219 20.663 56.2895 20.7454C55.9838 20.9468 55.7901 21.2216 55.7086 21.5604C55.5761 22.0549 55.8207 22.4121 56.3608 22.5403C56.697 22.6136 57.0435 22.6044 57.3797 22.5586C58.0319 22.4853 58.5924 22.2289 59.1019 21.881C59.5605 21.5788 59.9476 21.2124 60.3043 20.8278C60.936 20.1594 61.5475 19.4725 62.1691 18.7948C62.22 18.7399 62.271 18.685 62.3219 18.6392C62.3219 18.7399 62.271 18.8223 62.2302 18.8956C61.792 19.7289 61.3539 20.5623 60.9157 21.3956C60.824 21.5788 60.773 21.7711 60.7832 21.9725C60.7934 22.4395 61.1399 22.6959 61.6494 22.6227C61.8735 22.5861 62.0977 22.522 62.271 22.3846C62.5563 22.1648 62.8515 21.9542 63.1063 21.7069C63.6056 21.2216 64.085 20.7088 64.574 20.2051C64.6146 20.1594 64.6655 20.1136 64.7165 20.0769C64.7268 20.1502 64.7062 20.2051 64.6958 20.26C64.6449 20.5439 64.574 20.8187 64.5437 21.1026C64.5126 21.3956 64.5636 21.6886 64.6862 21.9633C64.9204 22.4579 65.3584 22.6868 65.9492 22.6227C66.2247 22.5861 66.4899 22.5037 66.7344 22.3846C67.1517 22.1831 67.4885 21.9084 67.8039 21.5971C67.8452 21.5513 67.8962 21.5146 67.9368 21.478C67.9464 21.5238 67.9368 21.5513 67.9265 21.5788C67.6 22.1556 67.2743 22.7417 66.9382 23.3187C66.8969 23.4011 66.8053 23.4652 66.724 23.511C65.7867 24.0696 64.8391 24.6099 63.9218 25.196C62.5563 26.0751 61.3844 27.119 60.5285 28.4286C60.182 28.9597 59.8661 29.5092 59.6929 30.1044C59.591 30.4524 59.5299 30.8095 59.5706 31.1667C59.6215 31.707 59.9782 32 60.5794 32C60.9259 32 61.2315 31.8901 61.5271 31.7527C61.9143 31.5605 62.2506 31.3132 62.5665 31.0293C63.0657 30.5989 63.5037 30.1136 63.9114 29.6099C64.6449 28.6942 65.3281 27.7509 65.9492 26.7711C66.7543 25.489 67.5291 24.1978 68.3135 22.9066C68.3851 22.7967 68.4664 22.7051 68.589 22.6319C68.9044 22.4487 69.2102 22.2472 69.5056 22.0458C70.4333 21.3956 71.248 20.6355 72.0228 19.8388C72.573 19.271 73.1026 18.685 73.6529 18.1172C73.8471 17.9157 74.0606 17.7143 74.2851 17.5403C74.407 17.4487 74.5495 17.3663 74.7024 17.3205C74.9166 17.2472 75.0186 17.3388 74.9676 17.5403C74.9476 17.6502 74.9063 17.7509 74.8457 17.8516C74.6618 18.163 74.4683 18.4835 74.2541 18.7857C73.5923 19.7381 72.9194 20.6813 72.2569 21.6246C72.186 21.7253 72.1144 21.826 72.0634 21.9267C71.9415 22.1374 72.0021 22.3572 72.2163 22.5128C72.4201 22.6685 72.675 22.6776 72.8892 22.522C72.9807 22.4487 73.062 22.3663 73.1233 22.2747C73.5716 21.6429 74.0303 21.011 74.458 20.3608C74.8967 19.7014 75.396 19.0787 75.9662 18.5018C76.3126 18.1538 76.6996 17.8425 77.0874 17.5311C77.3008 17.3571 77.5461 17.238 77.8312 17.174C77.984 17.1465 78.1266 17.1557 78.2588 17.2106C78.3918 17.2655 78.4324 17.3571 78.3918 17.4853C78.3607 17.5769 78.3098 17.6593 78.2588 17.7417C77.9021 18.3095 77.5461 18.8773 77.1893 19.445C76.8732 19.9487 76.5371 20.4432 76.3126 20.9835C76.1907 21.2765 76.0888 21.5788 76.0784 21.8993C76.0681 22.3938 76.4758 22.7051 77.0157 22.6319C77.3008 22.5861 77.566 22.4945 77.7905 22.3205C78.1163 22.0641 78.4523 21.7985 78.7382 21.5055C79.6651 20.5348 80.5721 19.5458 81.4895 18.5659C81.5301 18.5201 81.5707 18.4743 81.601 18.4286C81.7029 18.3645 81.7029 18.3095 81.5914 18.282ZM51.6835 19.6557C52.0708 18.9231 52.6007 18.2729 53.2121 17.6777C53.5382 17.3663 53.9254 17.119 54.4145 17.0457C54.547 17.0274 54.6896 17.0366 54.8221 17.0641C55.0768 17.119 55.1991 17.2838 55.1686 17.5219C55.1482 17.6593 55.1074 17.7967 55.0463 17.9249C54.659 18.7124 54.0477 19.2985 53.1713 19.6648C52.6822 19.8663 52.1523 19.8755 51.5715 19.8938C51.6123 19.7839 51.6428 19.7197 51.6835 19.6557ZM58.6841 15.9744C58.7351 15.9102 58.8369 15.8644 58.9185 15.837C59.0509 15.8095 59.1324 15.8919 59.1121 16.0201C59.1121 16.0384 59.1019 16.0476 59.1019 16.0659C58.9796 16.3864 58.7351 16.6337 58.4904 16.8901C58.4192 16.5421 58.4599 16.2399 58.6841 15.9744ZM66.6524 23.9322C65.481 25.9102 64.3088 27.8974 62.9439 29.7747C62.709 30.0952 62.485 30.4341 62.2404 30.7455C62.0671 30.9653 61.8735 31.1759 61.6698 31.3682C61.4354 31.5971 61.1399 31.7253 60.7934 31.7711C60.3043 31.8352 59.9884 31.6429 59.8967 31.2033C59.8152 30.8187 59.8763 30.4433 59.9884 30.0769C60.1616 29.5 60.4673 28.9781 60.8036 28.4652C61.6698 27.1923 62.791 26.1209 64.1456 25.2418C64.941 24.7289 65.7661 24.2619 66.5815 23.7766C66.6118 23.7582 66.6524 23.7491 66.6834 23.7308C66.6937 23.7399 66.7033 23.7491 66.7137 23.7582C66.7033 23.8224 66.6834 23.8773 66.6524 23.9322ZM68.2625 20.9652C67.9568 21.3407 67.6 21.6886 67.1724 21.9633C66.8969 22.1374 66.6118 22.2564 66.2757 22.2839C65.7048 22.3297 65.3687 22.0549 65.3894 21.4322C65.43 21.2949 65.4706 21.0476 65.5622 20.8187C66.0002 19.6374 66.7543 18.63 67.7736 17.7875C67.9878 17.6044 68.2522 17.467 68.507 17.3205C68.7212 17.2015 68.9657 17.1465 69.2308 17.1648C69.5263 17.1831 69.7405 17.3022 69.852 17.5494C69.9539 17.7783 69.9746 18.0164 69.8934 18.2545C69.883 18.2912 69.8727 18.3278 69.852 18.3553C69.414 19.271 68.9251 20.1594 68.2625 20.9652Z" fill="#18181B"/>
<path d="M127.691 11.5053C128.16 11.0566 128.547 10.5438 128.791 9.96684C128.944 9.60967 129.016 9.2434 128.995 8.86791C128.965 8.1811 128.689 7.56758 128.22 7.03643C127.65 6.3862 126.926 5.92834 126.081 5.62619C125.989 5.58955 125.897 5.56207 125.785 5.51627C126.132 5.23237 126.509 5.04008 126.906 4.88443C127.304 4.72871 127.742 4.68291 128.17 4.60969C128.17 4.59137 128.17 4.57305 128.17 4.55473C128.098 4.54557 128.037 4.52725 127.966 4.53641C127.772 4.55473 127.578 4.56389 127.385 4.60053C126.702 4.71039 126.101 4.9668 125.551 5.33314C125.439 5.40635 125.347 5.43383 125.215 5.40635C123.605 5.0584 122.005 5.12252 120.395 5.43383C118.825 5.7452 117.358 6.31299 115.972 7.02727C114.678 7.69576 113.496 8.49248 112.508 9.49981C111.754 10.2691 111.142 11.1207 110.806 12.1097C110.511 12.9705 110.469 13.8313 110.796 14.7013C111.01 15.269 111.427 15.6628 112.029 15.9101C112.712 16.1848 113.414 16.2214 114.128 16.0474C115.626 15.6812 116.604 14.7837 117.216 13.5291C117.348 13.2544 117.378 12.9614 117.338 12.6683C117.256 12.0822 116.808 11.6885 116.156 11.6701C115.666 11.6518 115.249 11.835 114.871 12.0914C114.852 12.1005 114.862 12.1372 114.841 12.2196C114.953 12.1646 115.024 12.128 115.086 12.1005C115.3 12.009 115.504 11.8991 115.728 11.8441C116.431 11.661 116.971 11.954 117.165 12.595C117.256 12.9247 117.205 13.2544 117.063 13.5566C116.615 14.4632 115.931 15.1775 114.933 15.617C114.25 15.9101 113.537 16.0016 112.793 15.8643C111.927 15.6995 111.336 15.1134 111.285 14.3716C111.255 14.0236 111.285 13.6848 111.366 13.346C111.601 12.3844 112.029 11.4962 112.61 10.672C114.423 8.08957 117.898 5.54375 122.382 5.3423C123.227 5.30566 124.063 5.36062 124.878 5.56207C124.95 5.58039 125.041 5.57123 125.092 5.66276C125.052 5.69024 125.021 5.72688 124.98 5.75436C124.002 6.49612 123.136 7.32033 122.362 8.23606C121.006 9.84776 119.814 11.5419 118.642 13.2544C117.745 14.5639 116.92 15.9101 116.054 17.2287C115.493 18.0896 114.922 18.9412 114.24 19.7288C113.649 20.4247 112.987 21.0566 112.171 21.5511C111.458 21.9815 110.694 22.3021 109.838 22.3936C109.267 22.4577 108.697 22.4211 108.166 22.1921C107.596 21.9449 107.189 21.5695 107.066 20.9834C106.964 20.4797 107.087 20.0127 107.412 19.5914C107.525 19.4357 107.677 19.3075 107.871 19.2343C107.994 19.1976 108.126 19.161 108.248 19.1701C108.442 19.1793 108.534 19.3075 108.483 19.4815C108.463 19.5456 108.442 19.6097 108.412 19.7104C108.839 19.5731 109.033 19.3075 109.114 18.9687C109.216 18.5475 108.839 18.2269 108.37 18.346C108.268 18.3735 108.157 18.4192 108.065 18.4833C107.922 18.5841 107.779 18.7031 107.658 18.8313C107.28 19.2343 107.046 19.7104 106.913 20.2233C106.842 20.498 106.842 20.7727 106.923 21.0475C107.148 21.835 107.718 22.3204 108.574 22.5493C109.257 22.7325 109.94 22.705 110.633 22.5676C111.591 22.3844 112.447 21.9998 113.231 21.4962C114.159 20.9101 114.943 20.1866 115.636 19.39C117.378 17.4119 118.907 15.3057 120.232 13.0804C121.383 11.1573 122.616 9.26172 123.961 7.43934C124.379 6.88071 124.827 6.34047 125.368 5.87344C125.51 5.7452 125.52 5.7452 125.704 5.82764C126.274 6.05658 126.773 6.3862 127.191 6.8075C127.569 7.17377 127.823 7.60415 127.915 8.09866C128.047 8.80385 127.915 9.49065 127.589 10.1317C126.998 11.3038 126.061 12.2288 124.899 12.9797C124.818 13.0346 124.736 13.0529 124.623 13.0437C124.032 12.9705 123.442 12.9614 122.84 13.0346C122.28 13.1079 121.75 13.2635 121.261 13.5291C121.108 13.6115 120.975 13.7215 120.853 13.8405C120.731 13.9595 120.762 14.0877 120.915 14.1793C121.026 14.2434 121.149 14.28 121.271 14.3167C121.608 14.3991 121.933 14.3533 122.269 14.2892C123.023 14.161 123.737 13.8954 124.43 13.6024C124.593 13.5291 124.736 13.3734 124.929 13.4192C125.103 13.465 125.266 13.5657 125.428 13.6482C125.469 13.6665 125.51 13.694 125.551 13.7215C126.427 14.2343 126.835 14.9577 126.784 15.8918C126.753 16.5511 126.56 17.1555 126.254 17.7507C125.561 19.1152 124.521 20.2416 123.248 21.194C122.749 21.5695 122.209 21.8808 121.617 22.1006C120.966 22.3478 120.293 22.4669 119.59 22.3479C118.754 22.2013 118.194 21.7709 117.98 21.02C117.858 20.6079 117.909 20.1958 118.041 19.7837C118.275 19.0603 118.744 18.4742 119.356 17.9705C119.763 17.6317 120.212 17.3661 120.731 17.183C121.026 17.0822 121.332 17.0731 121.648 17.128C121.852 17.1647 122.035 17.2379 122.178 17.3845C122.371 17.5768 122.32 17.7965 122.076 17.9156C122.005 17.9522 121.923 17.9797 121.831 18.0071C122.209 18.3094 122.84 18.2727 123.136 17.9339C123.309 17.7324 123.299 17.4852 123.105 17.2929C122.963 17.1464 122.779 17.0548 122.575 16.9998C122.046 16.8442 121.516 16.8533 120.986 16.9815C119.539 17.3295 118.143 18.6116 117.796 19.9119C117.694 20.2874 117.654 20.6628 117.756 21.0383C117.98 21.8808 118.591 22.3936 119.508 22.6134C120.384 22.8241 121.261 22.7599 122.107 22.5035C124.287 21.8534 125.938 20.5988 127.049 18.7947C127.538 17.998 127.762 17.128 127.742 16.2214C127.701 14.8295 126.988 13.8313 125.551 13.2727C125.49 13.2453 125.428 13.2178 125.326 13.1811C125.428 13.117 125.51 13.0804 125.581 13.0346C126.356 12.5676 127.079 12.0914 127.691 11.5053ZM124.389 13.2544C123.615 13.6757 122.81 14.0419 121.893 14.1427C121.689 14.1702 121.475 14.1427 121.261 14.1152C121.159 14.106 121.026 14.0694 121.006 13.9412C120.986 13.8313 121.077 13.7672 121.169 13.7123C121.322 13.6207 121.475 13.5199 121.648 13.4559C122.473 13.1262 123.329 13.0072 124.226 13.1628C124.257 13.172 124.287 13.172 124.318 13.1811C124.349 13.1903 124.379 13.1995 124.419 13.2086C124.389 13.2453 124.389 13.2544 124.389 13.2544Z" fill="#18181B"/>
<path d="M17.7407 3.42832C17.5166 3.73969 17.2211 3.96863 16.8237 4.08771C16.7829 4.09687 16.732 4.10596 16.6708 4.11512C16.681 3.96863 16.6912 3.8313 16.6912 3.68473C16.7422 2.43016 15.7639 1.258 14.3169 0.946641C13.4916 0.763493 12.6866 0.864227 11.8917 1.10232C11.0765 1.34958 10.3734 1.76166 9.72128 2.25617C8.87551 2.89717 8.17236 3.65726 7.54063 4.4723C6.58273 5.69941 5.79811 7.00896 5.08484 8.35508C4.89118 8.72142 4.70779 9.07852 4.54478 9.47234C4.61605 9.41738 4.67721 9.36242 4.74856 9.30746C5.59433 8.6115 6.54196 8.06203 7.65267 7.76904C9.21179 7.36607 10.7708 7.32942 12.3095 7.83309C13.1757 8.11699 13.9195 8.56569 14.5513 9.16096C14.6125 9.21592 14.6736 9.27998 14.7347 9.3441C14.7551 9.36242 14.7551 9.38074 14.7857 9.41738C14.1641 9.69211 13.5527 9.97601 12.9311 10.2507C12.8801 10.1775 12.8292 10.1225 12.7885 10.0584C12.0038 8.96867 10.8728 8.44668 9.44615 8.40088C7.72402 8.35508 6.33818 9.00531 5.1867 10.1042C4.29003 10.965 3.64804 11.9723 3.18951 13.0712C2.96527 13.6024 2.81246 14.161 2.62906 14.7012C2.58829 14.8203 2.54752 14.9028 2.41509 14.9668C1.67116 15.2965 0.927317 15.6262 0.183469 15.965C0.132505 15.9833 0.0815419 16.0016 0 16.0383C0.0305782 15.7819 0.0407706 15.5529 0.0713488 15.324C0.264937 13.9412 0.66238 12.595 1.18206 11.2855C2.19085 8.73974 3.58688 6.37705 5.46183 4.25252C6.36876 3.22687 7.37754 2.30196 8.55961 1.53273C9.50731 0.919167 10.5161 0.433819 11.6574 0.177412C12.2687 0.0400446 12.8903 -0.0149021 13.5221 0.00341795C14.3883 0.0217313 15.2443 0.104151 16.0697 0.369719C16.5588 0.525393 17.0071 0.73602 17.3841 1.06569C18.1382 1.73419 18.2707 2.67742 17.7407 3.42832Z" fill="#18181B"/>
<path d="M36.0421 2.34781C35.8892 2.51264 35.7364 2.67748 35.5938 2.83318C32.608 6.06574 29.6937 9.34416 26.9424 12.7508C25.5056 14.5182 24.13 16.3222 22.8868 18.2087C22.2652 19.1519 21.6742 20.1134 21.2157 21.1299C21.0119 21.5878 20.8285 22.064 20.7368 22.5585C20.7368 22.5768 20.7164 22.5951 20.696 22.6409C20.1763 22.5493 19.728 22.3479 19.4019 21.9724C19.0656 21.5786 18.9331 21.1299 18.9026 20.6446C18.8618 19.912 19.0452 19.2252 19.3917 18.5658C20.3189 16.8167 21.45 15.1775 22.7238 13.6208C24.1911 11.8259 25.8011 10.1409 27.5131 8.51996C29.1027 7.00902 30.7229 5.5255 32.3329 4.03281C32.4043 3.96869 32.4756 3.91373 32.5673 3.87709C33.6781 3.37343 34.7989 2.86976 35.9096 2.37528C35.9402 2.35697 35.9809 2.34781 36.0115 2.33865C36.0217 2.3295 36.0319 2.33865 36.0421 2.34781Z" fill="#18181B"/>
<path d="M49.3194 6.56025C49.2787 6.53277 49.2379 6.50529 49.1869 6.46865C49.2787 6.37711 49.35 6.31299 49.4316 6.24887C50.155 5.69024 50.9396 5.2507 51.9178 5.15916C51.9688 5.15916 52.0198 5.12252 52.0707 5.1042C52.0605 5.08588 52.0504 5.06756 52.0504 5.04924C51.4695 5.07672 50.9294 5.23238 50.3996 5.44299C49.8697 5.65367 49.401 5.94666 48.9526 6.27635C48.9017 6.24887 48.8609 6.23055 48.8303 6.20307C48.0355 5.71773 47.149 5.39726 46.2115 5.21406C44.7849 4.93932 43.3583 4.94848 41.9317 5.16832C39.5982 5.52543 37.5194 6.36795 35.6954 7.7324C34.5542 8.58408 33.6065 9.58226 32.9543 10.7819C32.4245 11.7434 32.1391 12.7508 32.2308 13.8313C32.3429 15.1134 33.046 16.0291 34.3708 16.5328C35.2878 16.8808 36.2355 16.9266 37.2035 16.7342C38.7626 16.4321 39.9446 15.6262 40.8516 14.4632C41.0146 14.2526 41.1369 14.0053 41.2489 13.7581C41.3916 13.4376 41.4426 13.0987 41.3916 12.7416C41.2999 12.1555 40.8312 11.6885 40.1892 11.5877C39.9446 11.5511 39.6797 11.5694 39.4351 11.6152C38.8237 11.7251 38.3142 11.9998 37.9474 12.4669C37.7742 12.6866 37.6621 12.9247 37.6723 13.1995C37.6825 13.5108 37.9373 13.7215 38.2837 13.694C38.518 13.6757 38.7219 13.6024 38.9053 13.465C39.0581 13.3551 39.1498 13.2178 39.1702 13.0072C39.0683 13.0255 39.0072 13.0529 38.9358 13.0621C38.6811 13.0987 38.569 12.998 38.5894 12.7691C38.5996 12.705 38.6199 12.6408 38.6403 12.5767C38.8441 12.0182 39.4555 11.6335 40.0568 11.6976C40.5968 11.7526 41.0248 12.1188 41.1369 12.6317C41.2489 13.172 41.1267 13.6665 40.8108 14.1244C40.0975 15.1683 39.109 15.9284 37.8047 16.3222C36.694 16.661 35.5935 16.661 34.5236 16.2123C33.3415 15.7178 32.9543 14.9028 32.9849 13.8588C32.9951 13.4101 33.097 12.9705 33.2397 12.5493C34.0447 10.1683 35.6139 8.27271 37.8761 6.87162C40.1688 5.45215 42.7367 4.93932 45.4982 5.2507C46.5987 5.36978 47.6177 5.69941 48.5552 6.23055C48.6265 6.27635 48.6978 6.32215 48.7692 6.36795C48.7386 6.40459 48.7284 6.42285 48.7182 6.43201C47.9132 7.06392 47.2203 7.79652 46.5579 8.54744C45.1517 10.1408 43.929 11.8441 42.7673 13.5841C41.9419 14.8203 41.1573 16.0749 40.3421 17.3203C39.6797 18.3277 38.9664 19.3167 38.141 20.2233C37.713 20.6903 37.2545 21.1391 36.7042 21.5053C36.2457 21.8076 36.2457 21.8076 35.7056 21.6885C34.7579 21.487 33.8103 21.2673 32.8524 21.075C32.1595 20.9376 31.4564 20.8552 30.7431 20.965C30.5291 21.0017 30.3049 21.0475 30.1113 21.1299C29.8158 21.2581 29.7648 21.5237 29.9687 21.7526C30.0298 21.8259 30.1215 21.89 30.203 21.9357C30.4986 22.1189 30.8145 22.2379 31.1609 22.3204C32.1086 22.5493 33.0766 22.6409 34.0651 22.5951C34.8395 22.5585 35.5935 22.4394 36.2967 22.1647C36.5412 22.0731 36.7552 22.0365 36.9997 22.1189C37.0099 22.1189 37.0099 22.1281 37.0201 22.1281C37.9678 22.3387 38.9257 22.5127 39.9039 22.5951C41.2795 22.7141 42.5941 22.5035 43.878 22.0823C47.1694 21.0017 49.992 18.4833 51.2555 15.4797C51.9586 13.813 52.193 12.1097 51.7854 10.3514C51.4389 8.85881 50.6441 7.56758 49.3194 6.56025ZM34.6357 22.3021C33.4332 22.5035 32.2512 22.4394 31.0896 22.1281C30.8552 22.064 30.631 21.9724 30.417 21.8717C30.3049 21.8167 30.2132 21.7343 30.1317 21.6427C30.0298 21.5328 30.0603 21.4229 30.203 21.3497C30.3151 21.2856 30.4374 21.2489 30.5597 21.2123C30.9775 21.1116 31.4156 21.1024 31.8436 21.1391C32.7302 21.2031 33.5963 21.3772 34.4522 21.5786C34.8802 21.6793 35.298 21.7801 35.726 21.8717C35.7769 21.8808 35.8279 21.8991 35.94 21.9357C35.4815 22.1006 35.0636 22.2288 34.6357 22.3021ZM51.1332 11.6335C50.8989 13.7215 50.0327 15.6079 48.8303 17.3845C48.0151 18.5933 47.0369 19.683 45.8141 20.5804C44.6524 21.4321 43.3481 22.009 41.8705 22.2746C41.1063 22.4119 40.3319 22.4211 39.5575 22.3662C38.7117 22.3112 37.8863 22.1373 37.0609 21.9815C37.0201 21.9724 36.9896 21.9541 36.9386 21.9357C36.959 21.9083 36.9692 21.89 36.9896 21.8808C37.8251 21.3589 38.5384 20.7178 39.211 20.0401C40.607 18.6207 41.8196 17.0823 42.9609 15.498C44.0104 14.0511 44.9275 12.531 45.8447 11.0108C46.4866 9.93936 47.149 8.86791 47.9336 7.8698C48.2393 7.47598 48.5756 7.11888 48.9017 6.74338C48.9526 6.68842 49.0035 6.63353 49.0647 6.56025C49.8493 7.11888 50.369 7.78736 50.7155 8.57492C51.1332 9.56394 51.2555 10.5895 51.1332 11.6335Z" fill="#18181B"/>
<path d="M16.2224 14.4266C16.0288 15.8826 15.499 17.2471 14.6124 18.4833C13.2062 20.443 11.2905 21.7984 8.78371 22.4394C7.70358 22.7233 6.59287 22.8424 5.47196 22.7233C3.23023 22.4852 1.62022 21.4412 0.652129 19.6006C0.519697 19.3533 0.427963 19.0786 0.326035 18.8222C0.275072 18.6939 0.244567 18.5566 0.193604 18.401C0.917066 18.0804 1.61002 17.7599 2.33349 17.4394C2.37426 17.7141 2.40484 17.9613 2.44561 18.2086C2.57804 18.9687 2.83278 19.7013 3.28119 20.3698C3.78049 21.1116 4.47337 21.6427 5.44146 21.835C6.23627 21.9907 7.0107 21.9174 7.76474 21.6518C8.47808 21.4046 9.10981 21.0292 9.68045 20.5713C10.3937 19.9943 10.9949 19.335 11.5044 18.6024C12.4623 17.2471 13.145 15.7819 13.4813 14.1976C13.5934 13.6573 13.6342 13.1079 13.6138 12.5584C13.6138 12.5035 13.6138 12.4394 13.6138 12.3661C14.3882 12.0182 15.1627 11.6701 15.9677 11.3039C16.0288 11.5145 16.09 11.6976 16.1409 11.8899C16.3549 12.7416 16.3447 13.5841 16.2224 14.4266Z" fill="#18181B"/>
<path d="M100.147 16.0932C99.8417 16.0932 99.6171 16.2032 99.4746 16.4229C99.2508 16.7526 99.4037 17.0731 99.821 17.1647C100.147 17.2288 100.422 17.1281 100.667 16.9632C101.197 16.5969 101.523 16.1024 101.625 15.5072C101.686 15.15 101.635 14.7929 101.441 14.4632C101.227 14.097 100.891 13.8589 100.433 13.7764C100.025 13.7031 99.6378 13.7764 99.2707 13.9412C98.9243 14.0878 98.6082 14.2984 98.3541 14.5548C98.0173 14.8936 97.6709 15.2233 97.3858 15.5987C96.7639 16.4138 96.173 17.2471 95.5615 18.0713C95.5105 18.1354 95.4699 18.1995 95.399 18.2911C94.7054 16.5329 94.2881 14.7563 94.0842 12.9431C94.1758 12.8973 94.2475 12.8698 94.3184 12.8332C94.7564 12.6317 95.2054 12.4302 95.6434 12.2196C96.4581 11.8259 97.1819 11.313 97.7529 10.6446C98.0786 10.2599 98.3231 9.83867 98.3947 9.36248C98.4967 8.73058 98.2618 8.00713 97.569 7.63171C97.1517 7.40277 96.693 7.32033 96.2136 7.36613C95.5519 7.42109 95.0215 7.69583 94.5835 8.11705C94.2165 8.465 93.9314 8.86798 93.7378 9.31668C93.2998 10.3057 93.0753 11.3314 93.0044 12.3936C92.9837 12.6775 92.9734 12.9614 92.9534 13.2636C92.5457 13.4376 92.158 13.5933 91.7709 13.7581C90.7723 14.1885 89.8144 14.6647 88.9583 15.2874C88.1533 15.8643 87.4604 16.5328 86.9818 17.357C86.4618 18.2453 86.258 19.1885 86.5032 20.1775C87.0431 22.3753 89.7841 23.1354 91.4452 22.3845C91.8832 22.1831 92.3013 21.9541 92.6779 21.6794C93.4934 21.0841 94.1655 20.3698 94.7564 19.5914C94.8073 19.5273 94.8583 19.4724 94.9196 19.39C94.9913 19.4999 95.0526 19.5823 95.1035 19.6647C95.6434 20.4614 96.3466 21.1299 97.182 21.6794C97.7115 22.0365 98.2928 22.3204 98.9346 22.476C99.719 22.6592 100.514 22.6867 101.299 22.4578C101.391 22.4303 101.472 22.3937 101.563 22.357C101.461 22.2197 101.359 22.2837 101.268 22.3021C100.8 22.4303 100.32 22.4578 99.8417 22.3937C98.9553 22.2746 98.1805 21.9266 97.518 21.3955C96.5911 20.6629 96.0098 19.7197 95.5615 18.7032C95.5208 18.6116 95.5519 18.5384 95.6028 18.4559C96.255 17.531 96.8968 16.5969 97.5586 15.672C97.8954 15.205 98.3128 14.7929 98.7921 14.4357C99.0875 14.216 99.4037 14.0512 99.7804 13.9687C100.555 13.8039 101.238 14.1427 101.452 14.8021C101.594 15.2325 101.533 15.6445 101.309 16.0383C101.156 16.3131 100.891 16.4871 100.565 16.5603C100.453 16.5877 100.32 16.5695 100.208 16.542C100.096 16.5237 100.056 16.4321 100.096 16.3313C100.076 16.2306 100.116 16.1665 100.147 16.0932ZM94.0436 9.88447C94.1145 9.40828 94.2674 8.95951 94.5429 8.53828C94.8583 8.06209 95.297 7.71415 95.9079 7.56759C96.2956 7.47599 96.6723 7.51263 97.0187 7.68667C97.4981 7.9156 97.7322 8.37347 97.6606 8.89546C97.6 9.2892 97.4471 9.65554 97.2433 10.0126C96.5401 11.2031 95.5208 12.0914 94.1758 12.6866C94.1455 12.6958 94.1145 12.705 94.0436 12.7324C94.0126 12.4394 93.9823 12.1647 93.972 11.8991C93.9314 11.2214 93.9417 10.553 94.0436 9.88447ZM92.2909 21.5603C92.138 21.6611 91.9644 21.7618 91.802 21.8442C91.4548 22.0182 91.0885 22.1281 90.7014 22.1739C90.0493 22.2471 89.4576 22.0915 88.9281 21.7526C88.1333 21.2398 87.6746 20.5346 87.5018 19.6739C87.3282 18.8039 87.5528 17.9889 87.9701 17.2105C88.4797 16.2764 89.2235 15.5255 90.1202 14.8844C90.9555 14.2984 91.8832 13.8589 92.8205 13.4376C92.8515 13.4284 92.8818 13.4284 92.9431 13.4101C93.0347 15.4431 93.6972 17.3203 94.7364 19.1244C94.0126 20.0127 93.2895 20.901 92.2909 21.5603Z" fill="#18181B"/>
<path d="M35.563 0.0951154C35.4815 0.131749 35.3898 0.177536 35.3082 0.214162C33.6065 0.983398 31.8946 1.74347 30.2031 2.51271C29.7446 2.72333 29.2758 2.86982 28.7867 2.96142C27.6046 3.19036 26.4226 3.39181 25.2202 3.47425C24.6597 3.51089 24.0993 3.54753 23.5388 3.52921C22.53 3.49257 21.725 3.08966 21.1849 2.3204C20.8079 1.78926 20.7569 1.21234 21.0015 0.617097C21.0117 0.598784 21.0219 0.58047 21.0321 0.56215C21.0422 0.552997 21.0524 0.543837 21.0626 0.525523C21.083 0.525523 21.0932 0.516363 21.1136 0.525523C21.8371 0.891824 22.6319 1.02918 23.4471 1.12077C24.4355 1.23065 25.4341 1.24897 26.4226 1.20318C27.625 1.13908 28.8172 0.992558 30.0095 0.809404C31.487 0.58047 32.9544 0.333216 34.4319 0.104276C34.6866 0.0676421 34.9516 0.0493286 35.2064 0.0310152C35.3286 0.0218552 35.4407 0.0401754 35.563 0.0493288C35.5528 0.0584888 35.563 0.076802 35.563 0.0951154Z" fill="#18181B"/>
<path d="M64.8998 15.2782C64.6449 15.2782 64.4721 15.15 64.4108 14.9302C64.3399 14.6464 64.5024 14.335 64.7978 14.216C65.1036 14.0969 65.3991 14.216 65.501 14.4906C65.6236 14.8661 65.3178 15.2782 64.8998 15.2782Z" fill="#18181B"/>
<path d="M138.645 15.2783C138.492 15.2692 138.38 15.2143 138.298 15.1044C138.156 14.9121 138.166 14.7014 138.288 14.5C138.4 14.3076 138.573 14.1886 138.777 14.1795C139.053 14.1703 139.225 14.2985 139.307 14.5092C139.429 14.8937 139.083 15.3058 138.645 15.2783Z" fill="#18181B"/>
</svg>
